<?xml version="1.0" encoding="utf-8" standalone="no"?>
<!DOCTYPE svg PUBLIC "-//W3C//DTD SVG 1.1//EN"
  "http://www.w3.org/Graphics/SVG/1.1/DTD/svg11.dtd">
<svg xmlns:xlink="http://www.w3.org/1999/xlink" width="576pt" height="576pt" viewBox="0 0 576 576" xmlns="http://www.w3.org/2000/svg" version="1.1">
 <metadata>
  <rdf:RDF xmlns:dc="http://purl.org/dc/elements/1.1/" xmlns:cc="http://creativecommons.org/ns#" xmlns:rdf="http://www.w3.org/1999/02/22-rdf-syntax-ns#">
   <cc:Work>
    <dc:type rdf:resource="http://purl.org/dc/dcmitype/StillImage"/>
    <dc:date>2024-05-22T23:04:40.932585</dc:date>
    <dc:format>image/svg+xml</dc:format>
    <dc:creator>
     <cc:Agent>
      <dc:title>Matplotlib v3.8.0, https://matplotlib.org/</dc:title>
     </cc:Agent>
    </dc:creator>
   </cc:Work>
  </rdf:RDF>
 </metadata>
 <defs>
  <style type="text/css">*{stroke-linejoin: round; stroke-linecap: butt}</style>
 </defs>
 <g id="figure_1">
  <g id="patch_1">
   <path d="M 0 576 
L 576 576 
L 576 0 
L 0 0 
z
" style="fill: #ffffff"/>
  </g>
  <g id="axes_1">
   <g id="patch_2">
    <path d="M 72 512.64 
L 518.4 512.64 
L 518.4 69.12 
L 72 69.12 
z
" style="fill: #ffffff"/>
   </g>
   <g id="PolyCollection_1">
    <defs>
     <path id="m17b0d1b8f4" d="M 117.391816 -94.166545 
L 115.888184 -94.166545 
L 107.777105 -96.116814 
L 92.393874 -98.067083 
L 80.928 -100.017352 
L 84.807524 -101.967621 
L 92.61165 -103.91789 
L 99.643874 -105.868158 
L 104.927095 -107.818427 
L 108.279263 -109.768696 
L 111.074766 -111.718965 
L 112.645104 -113.669234 
L 113.447535 -115.619503 
L 114.203836 -117.569771 
L 114.873818 -119.52004 
L 115.437043 -121.470309 
L 115.698107 -123.420578 
L 115.786011 -125.370847 
L 115.983694 -127.321116 
L 116.122405 -129.271384 
L 116.220294 -131.221653 
L 116.261792 -133.171922 
L 116.33732 -135.122191 
L 116.390351 -137.07246 
L 116.421263 -139.022729 
L 116.48334 -140.972997 
L 116.549188 -142.923266 
L 116.534197 -144.873535 
L 116.534735 -146.823804 
L 116.57756 -148.774073 
L 116.579221 -150.724341 
L 116.596259 -152.67461 
L 116.605963 -154.624879 
L 116.609356 -156.575148 
L 116.5831 -158.525417 
L 116.600721 -160.475686 
L 116.610278 -162.425954 
L 116.615002 -164.376223 
L 116.613284 -166.326492 
L 116.617473 -168.276761 
L 116.618107 -170.22703 
L 116.615195 -172.177299 
L 116.627811 -174.127567 
L 116.63188 -176.077836 
L 116.635521 -178.028105 
L 116.627314 -179.978374 
L 116.635173 -181.928643 
L 116.627825 -183.878912 
L 116.632917 -185.82918 
L 116.620781 -187.779449 
L 116.634072 -189.729718 
L 116.639917 -191.679987 
L 116.64 -193.630256 
L 116.64 -195.580525 
L 116.64 -197.530793 
L 116.64 -199.481062 
L 116.639764 -201.431331 
L 116.634817 -203.3816 
L 116.636097 -205.331869 
L 116.639899 -207.282138 
L 116.64 -209.232406 
L 116.64 -211.182675 
L 116.64 -213.132944 
L 116.64 -215.083213 
L 116.64 -217.033482 
L 116.639925 -218.983751 
L 116.636501 -220.934019 
L 116.634442 -222.884288 
L 116.639698 -224.834557 
L 116.639999 -226.784826 
L 116.64 -228.735095 
L 116.64 -230.685364 
L 116.64 -232.635632 
L 116.64 -234.585901 
L 116.64 -236.53617 
L 116.64 -238.486439 
L 116.64 -240.436708 
L 116.64 -242.386977 
L 116.64 -244.337245 
L 116.64 -246.287514 
L 116.64 -248.237783 
L 116.64 -250.188052 
L 116.64 -252.138321 
L 116.64 -254.08859 
L 116.64 -256.038858 
L 116.64 -257.989127 
L 116.64 -259.939396 
L 116.64 -261.889665 
L 116.64 -263.839934 
L 116.64 -265.790203 
L 116.64 -267.740471 
L 116.64 -269.69074 
L 116.64 -271.641009 
L 116.64 -273.591278 
L 116.64 -275.541547 
L 116.64 -277.491816 
L 116.64 -279.442084 
L 116.639985 -281.392353 
L 116.638291 -283.342622 
L 116.633151 -285.292891 
L 116.639061 -287.24316 
L 116.640939 -287.24316 
L 116.640939 -287.24316 
L 116.646849 -285.292891 
L 116.641709 -283.342622 
L 116.640015 -281.392353 
L 116.64 -279.442084 
L 116.64 -277.491816 
L 116.64 -275.541547 
L 116.64 -273.591278 
L 116.64 -271.641009 
L 116.64 -269.69074 
L 116.64 -267.740471 
L 116.64 -265.790203 
L 116.64 -263.839934 
L 116.64 -261.889665 
L 116.64 -259.939396 
L 116.64 -257.989127 
L 116.64 -256.038858 
L 116.64 -254.08859 
L 116.64 -252.138321 
L 116.64 -250.188052 
L 116.64 -248.237783 
L 116.64 -246.287514 
L 116.64 -244.337245 
L 116.64 -242.386977 
L 116.64 -240.436708 
L 116.64 -238.486439 
L 116.64 -236.53617 
L 116.64 -234.585901 
L 116.64 -232.635632 
L 116.64 -230.685364 
L 116.64 -228.735095 
L 116.640001 -226.784826 
L 116.640302 -224.834557 
L 116.645558 -222.884288 
L 116.643499 -220.934019 
L 116.640075 -218.983751 
L 116.64 -217.033482 
L 116.64 -215.083213 
L 116.64 -213.132944 
L 116.64 -211.182675 
L 116.64 -209.232406 
L 116.640101 -207.282138 
L 116.643903 -205.331869 
L 116.645183 -203.3816 
L 116.640236 -201.431331 
L 116.64 -199.481062 
L 116.64 -197.530793 
L 116.64 -195.580525 
L 116.64 -193.630256 
L 116.640083 -191.679987 
L 116.645928 -189.729718 
L 116.659219 -187.779449 
L 116.647083 -185.82918 
L 116.652175 -183.878912 
L 116.644827 -181.928643 
L 116.652686 -179.978374 
L 116.644479 -178.028105 
L 116.64812 -176.077836 
L 116.652189 -174.127567 
L 116.664805 -172.177299 
L 116.661893 -170.22703 
L 116.662527 -168.276761 
L 116.666716 -166.326492 
L 116.664998 -164.376223 
L 116.669722 -162.425954 
L 116.679279 -160.475686 
L 116.6969 -158.525417 
L 116.670644 -156.575148 
L 116.674037 -154.624879 
L 116.683741 -152.67461 
L 116.700779 -150.724341 
L 116.70244 -148.774073 
L 116.745265 -146.823804 
L 116.745803 -144.873535 
L 116.730812 -142.923266 
L 116.79666 -140.972997 
L 116.858737 -139.022729 
L 116.889649 -137.07246 
L 116.94268 -135.122191 
L 117.018208 -133.171922 
L 117.059706 -131.221653 
L 117.157595 -129.271384 
L 117.296306 -127.321116 
L 117.493989 -125.370847 
L 117.581893 -123.420578 
L 117.842957 -121.470309 
L 118.406182 -119.52004 
L 119.076164 -117.569771 
L 119.832465 -115.619503 
L 120.634896 -113.669234 
L 122.205234 -111.718965 
L 125.000737 -109.768696 
L 128.352905 -107.818427 
L 133.636126 -105.868158 
L 140.66835 -103.91789 
L 148.472476 -101.967621 
L 152.352 -100.017352 
L 140.886126 -98.067083 
L 125.502895 -96.116814 
L 117.391816 -94.166545 
z
" style="stroke: #3d3d3d; stroke-width: 1.25"/>
    </defs>
    <g clip-path="url(#p73ac87fb49)">
     <use xlink:href="#m17b0d1b8f4" x="0" y="576" style="fill: #3274a1; stroke: #3d3d3d; stroke-width: 1.25"/>
    </g>
   </g>
   <g id="PolyCollection_2">
    <defs>
     <path id="md607074ccc" d="M 206.266865 -92.590666 
L 205.573135 -92.590666 
L 204.406125 -94.300288 
L 202.699574 -96.009911 
L 201.131776 -97.719533 
L 197.793813 -99.429155 
L 191.886349 -101.138778 
L 185.401093 -102.8484 
L 179.681136 -104.558022 
L 174.922989 -106.267645 
L 171.505807 -107.977267 
L 170.208 -109.68689 
L 171.191417 -111.396512 
L 173.286425 -113.106134 
L 175.478112 -114.815757 
L 178.014344 -116.525379 
L 180.971906 -118.235002 
L 183.843539 -119.944624 
L 186.485533 -121.654246 
L 188.817193 -123.363869 
L 190.662511 -125.073491 
L 192.133045 -126.783114 
L 193.769501 -128.492736 
L 195.590015 -130.202358 
L 197.079454 -131.911981 
L 198.253397 -133.621603 
L 199.440382 -135.331226 
L 200.499247 -137.040848 
L 201.250652 -138.75047 
L 201.826525 -140.460093 
L 202.326795 -142.169715 
L 202.80395 -143.879338 
L 203.236704 -145.58896 
L 203.580333 -147.298582 
L 203.913808 -149.008205 
L 204.25357 -150.717827 
L 204.504961 -152.42745 
L 204.686847 -154.137072 
L 204.831074 -155.846694 
L 204.899338 -157.556317 
L 204.958275 -159.265939 
L 205.072831 -160.975562 
L 205.15379 -162.685184 
L 205.23189 -164.394806 
L 205.347804 -166.104429 
L 205.456682 -167.814051 
L 205.529479 -169.523674 
L 205.553693 -171.233296 
L 205.596485 -172.942918 
L 205.669846 -174.652541 
L 205.723476 -176.362163 
L 205.750265 -178.071786 
L 205.781279 -179.781408 
L 205.818599 -181.49103 
L 205.830601 -183.200653 
L 205.813549 -184.910275 
L 205.782517 -186.619898 
L 205.77296 -188.32952 
L 205.801265 -190.039142 
L 205.838181 -191.748765 
L 205.854613 -193.458387 
L 205.861565 -195.168009 
L 205.87092 -196.877632 
L 205.876712 -198.587254 
L 205.882154 -200.296877 
L 205.888316 -202.006499 
L 205.884608 -203.716121 
L 205.878783 -205.425744 
L 205.88069 -207.135366 
L 205.883493 -208.844989 
L 205.890827 -210.554611 
L 205.906809 -212.264233 
L 205.917156 -213.973856 
L 205.918882 -215.683478 
L 205.915462 -217.393101 
L 205.908709 -219.102723 
L 205.904723 -220.812345 
L 205.907558 -222.521968 
L 205.913972 -224.23159 
L 205.91607 -225.941213 
L 205.912235 -227.650835 
L 205.910475 -229.360457 
L 205.912807 -231.07008 
L 205.91159 -232.779702 
L 205.910649 -234.489325 
L 205.915063 -236.198947 
L 205.918881 -237.908569 
L 205.919892 -239.618192 
L 205.919996 -241.327814 
L 205.92 -243.037437 
L 205.92 -244.747059 
L 205.92 -246.456681 
L 205.92 -248.166304 
L 205.92 -249.875926 
L 205.919982 -251.585549 
L 205.919695 -253.295171 
L 205.917755 -255.004793 
L 205.912968 -256.714416 
L 205.910627 -258.424038 
L 205.914683 -260.133661 
L 205.918717 -261.843283 
L 205.921283 -261.843283 
L 205.921283 -261.843283 
L 205.925317 -260.133661 
L 205.929373 -258.424038 
L 205.927032 -256.714416 
L 205.922245 -255.004793 
L 205.920305 -253.295171 
L 205.920018 -251.585549 
L 205.92 -249.875926 
L 205.92 -248.166304 
L 205.92 -246.456681 
L 205.92 -244.747059 
L 205.92 -243.037437 
L 205.920004 -241.327814 
L 205.920108 -239.618192 
L 205.921119 -237.908569 
L 205.924937 -236.198947 
L 205.929351 -234.489325 
L 205.92841 -232.779702 
L 205.927193 -231.07008 
L 205.929525 -229.360457 
L 205.927765 -227.650835 
L 205.92393 -225.941213 
L 205.926028 -224.23159 
L 205.932442 -222.521968 
L 205.935277 -220.812345 
L 205.931291 -219.102723 
L 205.924538 -217.393101 
L 205.921118 -215.683478 
L 205.922844 -213.973856 
L 205.933191 -212.264233 
L 205.949173 -210.554611 
L 205.956507 -208.844989 
L 205.95931 -207.135366 
L 205.961217 -205.425744 
L 205.955392 -203.716121 
L 205.951684 -202.006499 
L 205.957846 -200.296877 
L 205.963288 -198.587254 
L 205.96908 -196.877632 
L 205.978435 -195.168009 
L 205.985387 -193.458387 
L 206.001819 -191.748765 
L 206.038735 -190.039142 
L 206.06704 -188.32952 
L 206.057483 -186.619898 
L 206.026451 -184.910275 
L 206.009399 -183.200653 
L 206.021401 -181.49103 
L 206.058721 -179.781408 
L 206.089735 -178.071786 
L 206.116524 -176.362163 
L 206.170154 -174.652541 
L 206.243515 -172.942918 
L 206.286307 -171.233296 
L 206.310521 -169.523674 
L 206.383318 -167.814051 
L 206.492196 -166.104429 
L 206.60811 -164.394806 
L 206.68621 -162.685184 
L 206.767169 -160.975562 
L 206.881725 -159.265939 
L 206.940662 -157.556317 
L 207.008926 -155.846694 
L 207.153153 -154.137072 
L 207.335039 -152.42745 
L 207.58643 -150.717827 
L 207.926192 -149.008205 
L 208.259667 -147.298582 
L 208.603296 -145.58896 
L 209.03605 -143.879338 
L 209.513205 -142.169715 
L 210.013475 -140.460093 
L 210.589348 -138.75047 
L 211.340753 -137.040848 
L 212.399618 -135.331226 
L 213.586603 -133.621603 
L 214.760546 -131.911981 
L 216.249985 -130.202358 
L 218.070499 -128.492736 
L 219.706955 -126.783114 
L 221.177489 -125.073491 
L 223.022807 -123.363869 
L 225.354467 -121.654246 
L 227.996461 -119.944624 
L 230.868094 -118.235002 
L 233.825656 -116.525379 
L 236.361888 -114.815757 
L 238.553575 -113.106134 
L 240.648583 -111.396512 
L 241.632 -109.68689 
L 240.334193 -107.977267 
L 236.917011 -106.267645 
L 232.158864 -104.558022 
L 226.438907 -102.8484 
L 219.953651 -101.138778 
L 214.046187 -99.429155 
L 210.708224 -97.719533 
L 209.140426 -96.009911 
L 207.433875 -94.300288 
L 206.266865 -92.590666 
z
" style="stroke: #3d3d3d; stroke-width: 1.25"/>
    </defs>
    <g clip-path="url(#p73ac87fb49)">
     <use xlink:href="#md607074ccc" x="0" y="576" style="fill: #e1812c; stroke: #3d3d3d; stroke-width: 1.25"/>
    </g>
   </g>
   <g id="PolyCollection_3">
    <defs>
     <path id="md95e9a204e" d="M 295.295763 -88.567513 
L 295.104237 -88.567513 
L 294.89454 -91.266686 
L 294.595858 -93.965859 
L 294.43961 -96.665032 
L 294.522781 -99.364205 
L 294.598271 -102.063377 
L 294.431085 -104.76255 
L 294.045063 -107.461723 
L 293.539134 -110.160896 
L 292.911039 -112.860069 
L 292.119513 -115.559242 
L 291.159812 -118.258414 
L 289.988655 -120.957587 
L 288.528555 -123.65676 
L 286.828904 -126.355933 
L 285.047769 -129.055106 
L 283.202856 -131.754279 
L 281.137346 -134.453451 
L 278.716894 -137.152624 
L 275.931284 -139.851797 
L 272.904232 -142.55097 
L 269.852872 -145.250143 
L 266.97773 -147.949316 
L 264.42688 -150.648488 
L 262.375546 -153.347661 
L 260.959106 -156.046834 
L 260.146513 -158.746007 
L 259.751315 -161.44518 
L 259.558214 -164.144353 
L 259.488 -166.843525 
L 259.561961 -169.542698 
L 259.842048 -172.241871 
L 260.377372 -174.941044 
L 261.045604 -177.640217 
L 261.614047 -180.339389 
L 262.11423 -183.038562 
L 262.884571 -185.737735 
L 264.091285 -188.436908 
L 265.641357 -191.136081 
L 267.393814 -193.835254 
L 269.211772 -196.534426 
L 271.11535 -199.233599 
L 273.22378 -201.932772 
L 275.455222 -204.631945 
L 277.5612 -207.331118 
L 279.409841 -210.030291 
L 281.070027 -212.729463 
L 282.640018 -215.428636 
L 284.113968 -218.127809 
L 285.446835 -220.826982 
L 286.688662 -223.526155 
L 287.921231 -226.225328 
L 289.101783 -228.9245 
L 290.13913 -231.623673 
L 291.009542 -234.322846 
L 291.698408 -237.022019 
L 292.216479 -239.721192 
L 292.658103 -242.420365 
L 293.087486 -245.119537 
L 293.475448 -247.81871 
L 293.812739 -250.517883 
L 294.136774 -253.217056 
L 294.440762 -255.916229 
L 294.678349 -258.615402 
L 294.83487 -261.314574 
L 294.925777 -264.013747 
L 294.969301 -266.71292 
L 294.989342 -269.412093 
L 295.012545 -272.111266 
L 295.045626 -274.810439 
L 295.07445 -277.509611 
L 295.089563 -280.208784 
L 295.099046 -282.907957 
L 295.116755 -285.60713 
L 295.139628 -288.306303 
L 295.152267 -291.005476 
L 295.153804 -293.704648 
L 295.156142 -296.403821 
L 295.163737 -299.102994 
L 295.169916 -301.802167 
L 295.169063 -304.50134 
L 295.166248 -307.200513 
L 295.168764 -309.899685 
L 295.17647 -312.598858 
L 295.185995 -315.298031 
L 295.19397 -317.997204 
L 295.198273 -320.696377 
L 295.199686 -323.39555 
L 295.199964 -326.094722 
L 295.199997 -328.793895 
L 295.199999 -331.493068 
L 295.199978 -334.192241 
L 295.19979 -336.891414 
L 295.198756 -339.590586 
L 295.195484 -342.289759 
L 295.189939 -344.988932 
L 295.186251 -347.688105 
L 295.188474 -350.387278 
L 295.194073 -353.086451 
L 295.19813 -355.785623 
L 295.20187 -355.785623 
L 295.20187 -355.785623 
L 295.205927 -353.086451 
L 295.211526 -350.387278 
L 295.213749 -347.688105 
L 295.210061 -344.988932 
L 295.204516 -342.289759 
L 295.201244 -339.590586 
L 295.20021 -336.891414 
L 295.200022 -334.192241 
L 295.200001 -331.493068 
L 295.200003 -328.793895 
L 295.200036 -326.094722 
L 295.200314 -323.39555 
L 295.201727 -320.696377 
L 295.20603 -317.997204 
L 295.214005 -315.298031 
L 295.22353 -312.598858 
L 295.231236 -309.899685 
L 295.233752 -307.200513 
L 295.230937 -304.50134 
L 295.230084 -301.802167 
L 295.236263 -299.102994 
L 295.243858 -296.403821 
L 295.246196 -293.704648 
L 295.247733 -291.005476 
L 295.260372 -288.306303 
L 295.283245 -285.60713 
L 295.300954 -282.907957 
L 295.310437 -280.208784 
L 295.32555 -277.509611 
L 295.354374 -274.810439 
L 295.387455 -272.111266 
L 295.410658 -269.412093 
L 295.430699 -266.71292 
L 295.474223 -264.013747 
L 295.56513 -261.314574 
L 295.721651 -258.615402 
L 295.959238 -255.916229 
L 296.263226 -253.217056 
L 296.587261 -250.517883 
L 296.924552 -247.81871 
L 297.312514 -245.119537 
L 297.741897 -242.420365 
L 298.183521 -239.721192 
L 298.701592 -237.022019 
L 299.390458 -234.322846 
L 300.26087 -231.623673 
L 301.298217 -228.9245 
L 302.478769 -226.225328 
L 303.711338 -223.526155 
L 304.953165 -220.826982 
L 306.286032 -218.127809 
L 307.759982 -215.428636 
L 309.329973 -212.729463 
L 310.990159 -210.030291 
L 312.8388 -207.331118 
L 314.944778 -204.631945 
L 317.17622 -201.932772 
L 319.28465 -199.233599 
L 321.188228 -196.534426 
L 323.006186 -193.835254 
L 324.758643 -191.136081 
L 326.308715 -188.436908 
L 327.515429 -185.737735 
L 328.28577 -183.038562 
L 328.785953 -180.339389 
L 329.354396 -177.640217 
L 330.022628 -174.941044 
L 330.557952 -172.241871 
L 330.838039 -169.542698 
L 330.912 -166.843525 
L 330.841786 -164.144353 
L 330.648685 -161.44518 
L 330.253487 -158.746007 
L 329.440894 -156.046834 
L 328.024454 -153.347661 
L 325.97312 -150.648488 
L 323.42227 -147.949316 
L 320.547128 -145.250143 
L 317.495768 -142.55097 
L 314.468716 -139.851797 
L 311.683106 -137.152624 
L 309.262654 -134.453451 
L 307.197144 -131.754279 
L 305.352231 -129.055106 
L 303.571096 -126.355933 
L 301.871445 -123.65676 
L 300.411345 -120.957587 
L 299.240188 -118.258414 
L 298.280487 -115.559242 
L 297.488961 -112.860069 
L 296.860866 -110.160896 
L 296.354937 -107.461723 
L 295.968915 -104.76255 
L 295.801729 -102.063377 
L 295.877219 -99.364205 
L 295.96039 -96.665032 
L 295.804142 -93.965859 
L 295.50546 -91.266686 
L 295.295763 -88.567513 
z
" style="stroke: #3d3d3d; stroke-width: 1.25"/>
    </defs>
    <g clip-path="url(#p73ac87fb49)">
     <use xlink:href="#md95e9a204e" x="0" y="576" style="fill: #3a923a; stroke: #3d3d3d; stroke-width: 1.25"/>
    </g>
   </g>
   <g id="PolyCollection_4">
    <defs>
     <path id="m092f23b3a7" d="M 384.504576 -89.802455 
L 384.455424 -89.802455 
L 384.360455 -93.310792 
L 384.29664 -96.819129 
L 384.385524 -100.327467 
L 384.458132 -103.835804 
L 384.465329 -107.344141 
L 384.434169 -110.852478 
L 384.385613 -114.360816 
L 384.342615 -117.869153 
L 384.304343 -121.37749 
L 384.249181 -124.885827 
L 384.222062 -128.394165 
L 384.232697 -131.902502 
L 384.186204 -135.410839 
L 384.115362 -138.919177 
L 384.064158 -142.427514 
L 383.957087 -145.935851 
L 383.841272 -149.444188 
L 383.778711 -152.952526 
L 383.691274 -156.460863 
L 383.401568 -159.9692 
L 383.053714 -163.477537 
L 382.809312 -166.985875 
L 382.612286 -170.494212 
L 382.236943 -174.002549 
L 381.676451 -177.510887 
L 381.00891 -181.019224 
L 380.096484 -184.527561 
L 379.126971 -188.035898 
L 377.936841 -191.544236 
L 376.034344 -195.052573 
L 373.918679 -198.56091 
L 371.708759 -202.069247 
L 368.823969 -205.577585 
L 365.578171 -209.085922 
L 362.291681 -212.594259 
L 358.600953 -216.102597 
L 354.29136 -219.610934 
L 350.887273 -223.119271 
L 349.519318 -226.627608 
L 348.768 -230.135946 
L 349.047404 -233.644283 
L 351.03227 -237.15262 
L 353.6789 -240.660957 
L 357.063803 -244.169295 
L 360.781198 -247.677632 
L 364.062809 -251.185969 
L 367.659428 -254.694306 
L 371.579195 -258.202644 
L 375.051836 -261.710981 
L 377.675322 -265.219318 
L 379.593505 -268.727656 
L 381.22228 -272.235993 
L 382.442974 -275.74433 
L 383.20884 -279.252667 
L 383.630322 -282.761005 
L 383.874037 -286.269342 
L 384.099672 -289.777679 
L 384.265332 -293.286016 
L 384.33699 -296.794354 
L 384.363739 -300.302691 
L 384.384224 -303.811028 
L 384.401467 -307.319366 
L 384.421828 -310.827703 
L 384.412486 -314.33604 
L 384.401476 -317.844377 
L 384.416001 -321.352715 
L 384.434619 -324.861052 
L 384.44795 -328.369389 
L 384.45648 -331.877726 
L 384.450219 -335.386064 
L 384.450364 -338.894401 
L 384.463723 -342.402738 
L 384.459908 -345.911076 
L 384.456108 -349.419413 
L 384.462846 -352.92775 
L 384.469381 -356.436087 
L 384.47692 -359.944425 
L 384.479705 -363.452762 
L 384.479991 -366.961099 
L 384.48 -370.469436 
L 384.48 -373.977774 
L 384.48 -377.486111 
L 384.479999 -380.994448 
L 384.479922 -384.502786 
L 384.47868 -388.011123 
L 384.473069 -391.51946 
L 384.468705 -395.027797 
L 384.474279 -398.536135 
L 384.478841 -402.044472 
L 384.477113 -405.552809 
L 384.470424 -409.061146 
L 384.469991 -412.569484 
L 384.476702 -416.077821 
L 384.478645 -419.586158 
L 384.473208 -423.094495 
L 384.463445 -426.602833 
L 384.462197 -430.11117 
L 384.471364 -433.619507 
L 384.478398 -437.127845 
L 384.481602 -437.127845 
L 384.481602 -437.127845 
L 384.488636 -433.619507 
L 384.497803 -430.11117 
L 384.496555 -426.602833 
L 384.486792 -423.094495 
L 384.481355 -419.586158 
L 384.483298 -416.077821 
L 384.490009 -412.569484 
L 384.489576 -409.061146 
L 384.482887 -405.552809 
L 384.481159 -402.044472 
L 384.485721 -398.536135 
L 384.491295 -395.027797 
L 384.486931 -391.51946 
L 384.48132 -388.011123 
L 384.480078 -384.502786 
L 384.480001 -380.994448 
L 384.48 -377.486111 
L 384.48 -373.977774 
L 384.48 -370.469436 
L 384.480009 -366.961099 
L 384.480295 -363.452762 
L 384.48308 -359.944425 
L 384.490619 -356.436087 
L 384.497154 -352.92775 
L 384.503892 -349.419413 
L 384.500092 -345.911076 
L 384.496277 -342.402738 
L 384.509636 -338.894401 
L 384.509781 -335.386064 
L 384.50352 -331.877726 
L 384.51205 -328.369389 
L 384.525381 -324.861052 
L 384.543999 -321.352715 
L 384.558524 -317.844377 
L 384.547514 -314.33604 
L 384.538172 -310.827703 
L 384.558533 -307.319366 
L 384.575776 -303.811028 
L 384.596261 -300.302691 
L 384.62301 -296.794354 
L 384.694668 -293.286016 
L 384.860328 -289.777679 
L 385.085963 -286.269342 
L 385.329678 -282.761005 
L 385.75116 -279.252667 
L 386.517026 -275.74433 
L 387.73772 -272.235993 
L 389.366495 -268.727656 
L 391.284678 -265.219318 
L 393.908164 -261.710981 
L 397.380805 -258.202644 
L 401.300572 -254.694306 
L 404.897191 -251.185969 
L 408.178802 -247.677632 
L 411.896197 -244.169295 
L 415.2811 -240.660957 
L 417.92773 -237.15262 
L 419.912596 -233.644283 
L 420.192 -230.135946 
L 419.440682 -226.627608 
L 418.072727 -223.119271 
L 414.66864 -219.610934 
L 410.359047 -216.102597 
L 406.668319 -212.594259 
L 403.381829 -209.085922 
L 400.136031 -205.577585 
L 397.251241 -202.069247 
L 395.041321 -198.56091 
L 392.925656 -195.052573 
L 391.023159 -191.544236 
L 389.833029 -188.035898 
L 388.863516 -184.527561 
L 387.95109 -181.019224 
L 387.283549 -177.510887 
L 386.723057 -174.002549 
L 386.347714 -170.494212 
L 386.150688 -166.985875 
L 385.906286 -163.477537 
L 385.558432 -159.9692 
L 385.268726 -156.460863 
L 385.181289 -152.952526 
L 385.118728 -149.444188 
L 385.002913 -145.935851 
L 384.895842 -142.427514 
L 384.844638 -138.919177 
L 384.773796 -135.410839 
L 384.727303 -131.902502 
L 384.737938 -128.394165 
L 384.710819 -124.885827 
L 384.655657 -121.37749 
L 384.617385 -117.869153 
L 384.574387 -114.360816 
L 384.525831 -110.852478 
L 384.494671 -107.344141 
L 384.501868 -103.835804 
L 384.574476 -100.327467 
L 384.66336 -96.819129 
L 384.599545 -93.310792 
L 384.504576 -89.802455 
z
" style="stroke: #3d3d3d; stroke-width: 1.25"/>
    </defs>
    <g clip-path="url(#p73ac87fb49)">
     <use xlink:href="#m092f23b3a7" x="0" y="576" style="fill: #c03d3e; stroke: #3d3d3d; stroke-width: 1.25"/>
    </g>
   </g>
   <g id="PolyCollection_5">
    <defs>
     <path id="mf6a661b351" d="M 473.769025 -83.52 
L 473.750975 -83.52 
L 473.733153 -87.592727 
L 473.705149 -91.665455 
L 473.678714 -95.738182 
L 473.660606 -99.810909 
L 473.63837 -103.883636 
L 473.597066 -107.956364 
L 473.534383 -112.029091 
L 473.443958 -116.101818 
L 473.294498 -120.174545 
L 473.037739 -124.247273 
L 472.632243 -128.32 
L 472.062288 -132.392727 
L 471.3518 -136.465455 
L 470.557553 -140.538182 
L 469.734901 -144.610909 
L 468.871675 -148.683636 
L 467.843746 -152.756364 
L 466.48988 -156.829091 
L 464.740877 -160.901818 
L 462.662161 -164.974545 
L 460.373115 -169.047273 
L 457.945601 -173.12 
L 455.415582 -177.192727 
L 452.821618 -181.265455 
L 450.147213 -185.338182 
L 447.349109 -189.410909 
L 444.561615 -193.483636 
L 442.087241 -197.556364 
L 440.133249 -201.629091 
L 438.780132 -205.701818 
L 438.101172 -209.774545 
L 438.048 -213.847273 
L 438.321467 -217.92 
L 438.564735 -221.992727 
L 438.65245 -226.065455 
L 438.728057 -230.138182 
L 439.044449 -234.210909 
L 439.771268 -238.283636 
L 440.881287 -242.356364 
L 442.180004 -246.429091 
L 443.430741 -250.501818 
L 444.520142 -254.574545 
L 445.523385 -258.647273 
L 446.594917 -262.72 
L 447.860989 -266.792727 
L 449.360837 -270.865455 
L 451.004758 -274.938182 
L 452.694867 -279.010909 
L 454.4668 -283.083636 
L 456.356057 -287.156364 
L 458.23098 -291.229091 
L 459.930109 -295.301818 
L 461.446323 -299.374545 
L 462.82963 -303.447273 
L 464.060989 -307.52 
L 465.153115 -311.592727 
L 466.200033 -315.665455 
L 467.230786 -319.738182 
L 468.153782 -323.810909 
L 468.892447 -327.883636 
L 469.469443 -331.956364 
L 469.943094 -336.029091 
L 470.349284 -340.101818 
L 470.710939 -344.174545 
L 471.057518 -348.247273 
L 471.411435 -352.32 
L 471.765045 -356.392727 
L 472.098909 -360.465455 
L 472.400292 -364.538182 
L 472.647789 -368.610909 
L 472.816707 -372.683636 
L 472.91305 -376.756364 
L 472.980911 -380.829091 
L 473.071153 -384.901818 
L 473.198684 -388.974545 
L 473.327068 -393.047273 
L 473.411203 -397.12 
L 473.447738 -401.192727 
L 473.466679 -405.265455 
L 473.496407 -409.338182 
L 473.547791 -413.410909 
L 473.610924 -417.483636 
L 473.664613 -421.556364 
L 473.696791 -425.629091 
L 473.709692 -429.701818 
L 473.708673 -433.774545 
L 473.699324 -437.847273 
L 473.689155 -441.92 
L 473.683023 -445.992727 
L 473.684166 -450.065455 
L 473.697223 -454.138182 
L 473.719378 -458.210909 
L 473.737321 -462.283636 
L 473.741476 -466.356364 
L 473.736161 -470.429091 
L 473.733537 -474.501818 
L 473.739679 -478.574545 
L 473.749561 -482.647273 
L 473.756428 -486.72 
L 473.763572 -486.72 
L 473.763572 -486.72 
L 473.770439 -482.647273 
L 473.780321 -478.574545 
L 473.786463 -474.501818 
L 473.783839 -470.429091 
L 473.778524 -466.356364 
L 473.782679 -462.283636 
L 473.800622 -458.210909 
L 473.822777 -454.138182 
L 473.835834 -450.065455 
L 473.836977 -445.992727 
L 473.830845 -441.92 
L 473.820676 -437.847273 
L 473.811327 -433.774545 
L 473.810308 -429.701818 
L 473.823209 -425.629091 
L 473.855387 -421.556364 
L 473.909076 -417.483636 
L 473.972209 -413.410909 
L 474.023593 -409.338182 
L 474.053321 -405.265455 
L 474.072262 -401.192727 
L 474.108797 -397.12 
L 474.192932 -393.047273 
L 474.321316 -388.974545 
L 474.448847 -384.901818 
L 474.539089 -380.829091 
L 474.60695 -376.756364 
L 474.703293 -372.683636 
L 474.872211 -368.610909 
L 475.119708 -364.538182 
L 475.421091 -360.465455 
L 475.754955 -356.392727 
L 476.108565 -352.32 
L 476.462482 -348.247273 
L 476.809061 -344.174545 
L 477.170716 -340.101818 
L 477.576906 -336.029091 
L 478.050557 -331.956364 
L 478.627553 -327.883636 
L 479.366218 -323.810909 
L 480.289214 -319.738182 
L 481.319967 -315.665455 
L 482.366885 -311.592727 
L 483.459011 -307.52 
L 484.69037 -303.447273 
L 486.073677 -299.374545 
L 487.589891 -295.301818 
L 489.28902 -291.229091 
L 491.163943 -287.156364 
L 493.0532 -283.083636 
L 494.825133 -279.010909 
L 496.515242 -274.938182 
L 498.159163 -270.865455 
L 499.659011 -266.792727 
L 500.925083 -262.72 
L 501.996615 -258.647273 
L 502.999858 -254.574545 
L 504.089259 -250.501818 
L 505.339996 -246.429091 
L 506.638713 -242.356364 
L 507.748732 -238.283636 
L 508.475551 -234.210909 
L 508.791943 -230.138182 
L 508.86755 -226.065455 
L 508.955265 -221.992727 
L 509.198533 -217.92 
L 509.472 -213.847273 
L 509.418828 -209.774545 
L 508.739868 -205.701818 
L 507.386751 -201.629091 
L 505.432759 -197.556364 
L 502.958385 -193.483636 
L 500.170891 -189.410909 
L 497.372787 -185.338182 
L 494.698382 -181.265455 
L 492.104418 -177.192727 
L 489.574399 -173.12 
L 487.146885 -169.047273 
L 484.857839 -164.974545 
L 482.779123 -160.901818 
L 481.03012 -156.829091 
L 479.676254 -152.756364 
L 478.648325 -148.683636 
L 477.785099 -144.610909 
L 476.962447 -140.538182 
L 476.1682 -136.465455 
L 475.457712 -132.392727 
L 474.887757 -128.32 
L 474.482261 -124.247273 
L 474.225502 -120.174545 
L 474.076042 -116.101818 
L 473.985617 -112.029091 
L 473.922934 -107.956364 
L 473.88163 -103.883636 
L 473.859394 -99.810909 
L 473.841286 -95.738182 
L 473.814851 -91.665455 
L 473.786847 -87.592727 
L 473.769025 -83.52 
z
" style="stroke: #3d3d3d; stroke-width: 1.25"/>
    </defs>
    <g clip-path="url(#p73ac87fb49)">
     <use xlink:href="#mf6a661b351" x="0" y="576" style="fill: #9372b2; stroke: #3d3d3d; stroke-width: 1.25"/>
    </g>
   </g>
   <g id="matplotlib.axis_1">
    <g id="xtick_1">
     <g id="line2d_1">
      <defs>
       <path id="m3cf8b8cb71" d="M 0 0 
L 0 3.5 
" style="stroke: #000000; stroke-width: 0.8"/>
      </defs>
      <g>
       <use xlink:href="#m3cf8b8cb71" x="116.64" y="512.64" style="stroke: #000000; stroke-width: 0.8"/>
      </g>
     </g>
     <g id="text_1">
      <!-- one_star -->
      <g transform="translate(95.150937 526.960312) scale(0.1 -0.1)">
       <defs>
        <path id="DejaVuSans-6f" d="M 1959 3097 
Q 1497 3097 1228 2736 
Q 959 2375 959 1747 
Q 959 1119 1226 758 
Q 1494 397 1959 397 
Q 2419 397 2687 759 
Q 2956 1122 2956 1747 
Q 2956 2369 2687 2733 
Q 2419 3097 1959 3097 
z
M 1959 3584 
Q 2709 3584 3137 3096 
Q 3566 2609 3566 1747 
Q 3566 888 3137 398 
Q 2709 -91 1959 -91 
Q 1206 -91 779 398 
Q 353 888 353 1747 
Q 353 2609 779 3096 
Q 1206 3584 1959 3584 
z
" transform="scale(0.015625)"/>
        <path id="DejaVuSans-6e" d="M 3513 2113 
L 3513 0 
L 2938 0 
L 2938 2094 
Q 2938 2591 2744 2837 
Q 2550 3084 2163 3084 
Q 1697 3084 1428 2787 
Q 1159 2491 1159 1978 
L 1159 0 
L 581 0 
L 581 3500 
L 1159 3500 
L 1159 2956 
Q 1366 3272 1645 3428 
Q 1925 3584 2291 3584 
Q 2894 3584 3203 3211 
Q 3513 2838 3513 2113 
z
" transform="scale(0.015625)"/>
        <path id="DejaVuSans-65" d="M 3597 1894 
L 3597 1613 
L 953 1613 
Q 991 1019 1311 708 
Q 1631 397 2203 397 
Q 2534 397 2845 478 
Q 3156 559 3463 722 
L 3463 178 
Q 3153 47 2828 -22 
Q 2503 -91 2169 -91 
Q 1331 -91 842 396 
Q 353 884 353 1716 
Q 353 2575 817 3079 
Q 1281 3584 2069 3584 
Q 2775 3584 3186 3129 
Q 3597 2675 3597 1894 
z
M 3022 2063 
Q 3016 2534 2758 2815 
Q 2500 3097 2075 3097 
Q 1594 3097 1305 2825 
Q 1016 2553 972 2059 
L 3022 2063 
z
" transform="scale(0.015625)"/>
        <path id="DejaVuSans-5f" d="M 3263 -1063 
L 3263 -1509 
L -63 -1509 
L -63 -1063 
L 3263 -1063 
z
" transform="scale(0.015625)"/>
        <path id="DejaVuSans-73" d="M 2834 3397 
L 2834 2853 
Q 2591 2978 2328 3040 
Q 2066 3103 1784 3103 
Q 1356 3103 1142 2972 
Q 928 2841 928 2578 
Q 928 2378 1081 2264 
Q 1234 2150 1697 2047 
L 1894 2003 
Q 2506 1872 2764 1633 
Q 3022 1394 3022 966 
Q 3022 478 2636 193 
Q 2250 -91 1575 -91 
Q 1294 -91 989 -36 
Q 684 19 347 128 
L 347 722 
Q 666 556 975 473 
Q 1284 391 1588 391 
Q 1994 391 2212 530 
Q 2431 669 2431 922 
Q 2431 1156 2273 1281 
Q 2116 1406 1581 1522 
L 1381 1569 
Q 847 1681 609 1914 
Q 372 2147 372 2553 
Q 372 3047 722 3315 
Q 1072 3584 1716 3584 
Q 2034 3584 2315 3537 
Q 2597 3491 2834 3397 
z
" transform="scale(0.015625)"/>
        <path id="DejaVuSans-74" d="M 1172 4494 
L 1172 3500 
L 2356 3500 
L 2356 3053 
L 1172 3053 
L 1172 1153 
Q 1172 725 1289 603 
Q 1406 481 1766 481 
L 2356 481 
L 2356 0 
L 1766 0 
Q 1100 0 847 248 
Q 594 497 594 1153 
L 594 3053 
L 172 3053 
L 172 3500 
L 594 3500 
L 594 4494 
L 1172 4494 
z
" transform="scale(0.015625)"/>
        <path id="DejaVuSans-61" d="M 2194 1759 
Q 1497 1759 1228 1600 
Q 959 1441 959 1056 
Q 959 750 1161 570 
Q 1363 391 1709 391 
Q 2188 391 2477 730 
Q 2766 1069 2766 1631 
L 2766 1759 
L 2194 1759 
z
M 3341 1997 
L 3341 0 
L 2766 0 
L 2766 531 
Q 2569 213 2275 61 
Q 1981 -91 1556 -91 
Q 1019 -91 701 211 
Q 384 513 384 1019 
Q 384 1609 779 1909 
Q 1175 2209 1959 2209 
L 2766 2209 
L 2766 2266 
Q 2766 2663 2505 2880 
Q 2244 3097 1772 3097 
Q 1472 3097 1187 3025 
Q 903 2953 641 2809 
L 641 3341 
Q 956 3463 1253 3523 
Q 1550 3584 1831 3584 
Q 2591 3584 2966 3190 
Q 3341 2797 3341 1997 
z
" transform="scale(0.015625)"/>
        <path id="DejaVuSans-72" d="M 2631 2963 
Q 2534 3019 2420 3045 
Q 2306 3072 2169 3072 
Q 1681 3072 1420 2755 
Q 1159 2438 1159 1844 
L 1159 0 
L 581 0 
L 581 3500 
L 1159 3500 
L 1159 2956 
Q 1341 3275 1631 3429 
Q 1922 3584 2338 3584 
Q 2397 3584 2469 3576 
Q 2541 3569 2628 3553 
L 2631 2963 
z
" transform="scale(0.015625)"/>
       </defs>
       <use xlink:href="#DejaVuSans-6f"/>
       <use xlink:href="#DejaVuSans-6e" x="61.181641"/>
       <use xlink:href="#DejaVuSans-65" x="124.560547"/>
       <use xlink:href="#DejaVuSans-5f" x="186.083984"/>
       <use xlink:href="#DejaVuSans-73" x="236.083984"/>
       <use xlink:href="#DejaVuSans-74" x="288.183594"/>
       <use xlink:href="#DejaVuSans-61" x="327.392578"/>
       <use xlink:href="#DejaVuSans-72" x="388.671875"/>
      </g>
     </g>
    </g>
    <g id="xtick_2">
     <g id="line2d_2">
      <g>
       <use xlink:href="#m3cf8b8cb71" x="205.92" y="512.64" style="stroke: #000000; stroke-width: 0.8"/>
      </g>
     </g>
     <g id="text_2">
      <!-- two_stars -->
      <g transform="translate(182.022344 526.960312) scale(0.1 -0.1)">
       <defs>
        <path id="DejaVuSans-77" d="M 269 3500 
L 844 3500 
L 1563 769 
L 2278 3500 
L 2956 3500 
L 3675 769 
L 4391 3500 
L 4966 3500 
L 4050 0 
L 3372 0 
L 2619 2869 
L 1863 0 
L 1184 0 
L 269 3500 
z
" transform="scale(0.015625)"/>
       </defs>
       <use xlink:href="#DejaVuSans-74"/>
       <use xlink:href="#DejaVuSans-77" x="39.208984"/>
       <use xlink:href="#DejaVuSans-6f" x="120.996094"/>
       <use xlink:href="#DejaVuSans-5f" x="182.177734"/>
       <use xlink:href="#DejaVuSans-73" x="232.177734"/>
       <use xlink:href="#DejaVuSans-74" x="284.277344"/>
       <use xlink:href="#DejaVuSans-61" x="323.486328"/>
       <use xlink:href="#DejaVuSans-72" x="384.765625"/>
       <use xlink:href="#DejaVuSans-73" x="425.878906"/>
      </g>
     </g>
    </g>
    <g id="xtick_3">
     <g id="line2d_3">
      <g>
       <use xlink:href="#m3cf8b8cb71" x="295.2" y="512.64" style="stroke: #000000; stroke-width: 0.8"/>
      </g>
     </g>
     <g id="text_3">
      <!-- three_stars -->
      <g transform="translate(267.185937 527.238438) scale(0.1 -0.1)">
       <defs>
        <path id="DejaVuSans-68" d="M 3513 2113 
L 3513 0 
L 2938 0 
L 2938 2094 
Q 2938 2591 2744 2837 
Q 2550 3084 2163 3084 
Q 1697 3084 1428 2787 
Q 1159 2491 1159 1978 
L 1159 0 
L 581 0 
L 581 4863 
L 1159 4863 
L 1159 2956 
Q 1366 3272 1645 3428 
Q 1925 3584 2291 3584 
Q 2894 3584 3203 3211 
Q 3513 2838 3513 2113 
z
" transform="scale(0.015625)"/>
       </defs>
       <use xlink:href="#DejaVuSans-74"/>
       <use xlink:href="#DejaVuSans-68" x="39.208984"/>
       <use xlink:href="#DejaVuSans-72" x="102.587891"/>
       <use xlink:href="#DejaVuSans-65" x="141.451172"/>
       <use xlink:href="#DejaVuSans-65" x="202.974609"/>
       <use xlink:href="#DejaVuSans-5f" x="264.498047"/>
       <use xlink:href="#DejaVuSans-73" x="314.498047"/>
       <use xlink:href="#DejaVuSans-74" x="366.597656"/>
       <use xlink:href="#DejaVuSans-61" x="405.806641"/>
       <use xlink:href="#DejaVuSans-72" x="467.085938"/>
       <use xlink:href="#DejaVuSans-73" x="508.199219"/>
      </g>
     </g>
    </g>
    <g id="xtick_4">
     <g id="line2d_4">
      <g>
       <use xlink:href="#m3cf8b8cb71" x="384.48" y="512.64" style="stroke: #000000; stroke-width: 0.8"/>
      </g>
     </g>
     <g id="text_4">
      <!-- four_stars -->
      <g transform="translate(359.647188 527.238438) scale(0.1 -0.1)">
       <defs>
        <path id="DejaVuSans-66" d="M 2375 4863 
L 2375 4384 
L 1825 4384 
Q 1516 4384 1395 4259 
Q 1275 4134 1275 3809 
L 1275 3500 
L 2222 3500 
L 2222 3053 
L 1275 3053 
L 1275 0 
L 697 0 
L 697 3053 
L 147 3053 
L 147 3500 
L 697 3500 
L 697 3744 
Q 697 4328 969 4595 
Q 1241 4863 1831 4863 
L 2375 4863 
z
" transform="scale(0.015625)"/>
        <path id="DejaVuSans-75" d="M 544 1381 
L 544 3500 
L 1119 3500 
L 1119 1403 
Q 1119 906 1312 657 
Q 1506 409 1894 409 
Q 2359 409 2629 706 
Q 2900 1003 2900 1516 
L 2900 3500 
L 3475 3500 
L 3475 0 
L 2900 0 
L 2900 538 
Q 2691 219 2414 64 
Q 2138 -91 1772 -91 
Q 1169 -91 856 284 
Q 544 659 544 1381 
z
M 1991 3584 
L 1991 3584 
z
" transform="scale(0.015625)"/>
       </defs>
       <use xlink:href="#DejaVuSans-66"/>
       <use xlink:href="#DejaVuSans-6f" x="35.205078"/>
       <use xlink:href="#DejaVuSans-75" x="96.386719"/>
       <use xlink:href="#DejaVuSans-72" x="159.765625"/>
       <use xlink:href="#DejaVuSans-5f" x="200.878906"/>
       <use xlink:href="#DejaVuSans-73" x="250.878906"/>
       <use xlink:href="#DejaVuSans-74" x="302.978516"/>
       <use xlink:href="#DejaVuSans-61" x="342.1875"/>
       <use xlink:href="#DejaVuSans-72" x="403.466797"/>
       <use xlink:href="#DejaVuSans-73" x="444.580078"/>
      </g>
     </g>
    </g>
    <g id="xtick_5">
     <g id="line2d_5">
      <g>
       <use xlink:href="#m3cf8b8cb71" x="473.76" y="512.64" style="stroke: #000000; stroke-width: 0.8"/>
      </g>
     </g>
     <g id="text_5">
      <!-- five_stars -->
      <g transform="translate(449.785781 527.238438) scale(0.1 -0.1)">
       <defs>
        <path id="DejaVuSans-69" d="M 603 3500 
L 1178 3500 
L 1178 0 
L 603 0 
L 603 3500 
z
M 603 4863 
L 1178 4863 
L 1178 4134 
L 603 4134 
L 603 4863 
z
" transform="scale(0.015625)"/>
        <path id="DejaVuSans-76" d="M 191 3500 
L 800 3500 
L 1894 563 
L 2988 3500 
L 3597 3500 
L 2284 0 
L 1503 0 
L 191 3500 
z
" transform="scale(0.015625)"/>
       </defs>
       <use xlink:href="#DejaVuSans-66"/>
       <use xlink:href="#DejaVuSans-69" x="35.205078"/>
       <use xlink:href="#DejaVuSans-76" x="62.988281"/>
       <use xlink:href="#DejaVuSans-65" x="122.167969"/>
       <use xlink:href="#DejaVuSans-5f" x="183.691406"/>
       <use xlink:href="#DejaVuSans-73" x="233.691406"/>
       <use xlink:href="#DejaVuSans-74" x="285.791016"/>
       <use xlink:href="#DejaVuSans-61" x="325"/>
       <use xlink:href="#DejaVuSans-72" x="386.279297"/>
       <use xlink:href="#DejaVuSans-73" x="427.392578"/>
      </g>
     </g>
    </g>
   </g>
   <g id="matplotlib.axis_2">
    <g id="ytick_1">
     <g id="line2d_6">
      <defs>
       <path id="m32d84204b8" d="M 0 0 
L -3.5 0 
" style="stroke: #000000; stroke-width: 0.8"/>
      </defs>
      <g>
       <use xlink:href="#m32d84204b8" x="72" y="479.710295" style="stroke: #000000; stroke-width: 0.8"/>
      </g>
     </g>
     <g id="text_6">
      <!-- 0.0 -->
      <g transform="translate(49.096875 483.509514) scale(0.1 -0.1)">
       <defs>
        <path id="DejaVuSans-30" d="M 2034 4250 
Q 1547 4250 1301 3770 
Q 1056 3291 1056 2328 
Q 1056 1369 1301 889 
Q 1547 409 2034 409 
Q 2525 409 2770 889 
Q 3016 1369 3016 2328 
Q 3016 3291 2770 3770 
Q 2525 4250 2034 4250 
z
M 2034 4750 
Q 2819 4750 3233 4129 
Q 3647 3509 3647 2328 
Q 3647 1150 3233 529 
Q 2819 -91 2034 -91 
Q 1250 -91 836 529 
Q 422 1150 422 2328 
Q 422 3509 836 4129 
Q 1250 4750 2034 4750 
z
" transform="scale(0.015625)"/>
        <path id="DejaVuSans-2e" d="M 684 794 
L 1344 794 
L 1344 0 
L 684 0 
L 684 794 
z
" transform="scale(0.015625)"/>
       </defs>
       <use xlink:href="#DejaVuSans-30"/>
       <use xlink:href="#DejaVuSans-2e" x="63.623047"/>
       <use xlink:href="#DejaVuSans-30" x="95.410156"/>
      </g>
     </g>
    </g>
    <g id="ytick_2">
     <g id="line2d_7">
      <g>
       <use xlink:href="#m32d84204b8" x="72" y="404.178177" style="stroke: #000000; stroke-width: 0.8"/>
      </g>
     </g>
     <g id="text_7">
      <!-- 0.2 -->
      <g transform="translate(49.096875 407.977396) scale(0.1 -0.1)">
       <defs>
        <path id="DejaVuSans-32" d="M 1228 531 
L 3431 531 
L 3431 0 
L 469 0 
L 469 531 
Q 828 903 1448 1529 
Q 2069 2156 2228 2338 
Q 2531 2678 2651 2914 
Q 2772 3150 2772 3378 
Q 2772 3750 2511 3984 
Q 2250 4219 1831 4219 
Q 1534 4219 1204 4116 
Q 875 4013 500 3803 
L 500 4441 
Q 881 4594 1212 4672 
Q 1544 4750 1819 4750 
Q 2544 4750 2975 4387 
Q 3406 4025 3406 3419 
Q 3406 3131 3298 2873 
Q 3191 2616 2906 2266 
Q 2828 2175 2409 1742 
Q 1991 1309 1228 531 
z
" transform="scale(0.015625)"/>
       </defs>
       <use xlink:href="#DejaVuSans-30"/>
       <use xlink:href="#DejaVuSans-2e" x="63.623047"/>
       <use xlink:href="#DejaVuSans-32" x="95.410156"/>
      </g>
     </g>
    </g>
    <g id="ytick_3">
     <g id="line2d_8">
      <g>
       <use xlink:href="#m32d84204b8" x="72" y="328.646059" style="stroke: #000000; stroke-width: 0.8"/>
      </g>
     </g>
     <g id="text_8">
      <!-- 0.4 -->
      <g transform="translate(49.096875 332.445278) scale(0.1 -0.1)">
       <defs>
        <path id="DejaVuSans-34" d="M 2419 4116 
L 825 1625 
L 2419 1625 
L 2419 4116 
z
M 2253 4666 
L 3047 4666 
L 3047 1625 
L 3713 1625 
L 3713 1100 
L 3047 1100 
L 3047 0 
L 2419 0 
L 2419 1100 
L 313 1100 
L 313 1709 
L 2253 4666 
z
" transform="scale(0.015625)"/>
       </defs>
       <use xlink:href="#DejaVuSans-30"/>
       <use xlink:href="#DejaVuSans-2e" x="63.623047"/>
       <use xlink:href="#DejaVuSans-34" x="95.410156"/>
      </g>
     </g>
    </g>
    <g id="ytick_4">
     <g id="line2d_9">
      <g>
       <use xlink:href="#m32d84204b8" x="72" y="253.113941" style="stroke: #000000; stroke-width: 0.8"/>
      </g>
     </g>
     <g id="text_9">
      <!-- 0.6 -->
      <g transform="translate(49.096875 256.91316) scale(0.1 -0.1)">
       <defs>
        <path id="DejaVuSans-36" d="M 2113 2584 
Q 1688 2584 1439 2293 
Q 1191 2003 1191 1497 
Q 1191 994 1439 701 
Q 1688 409 2113 409 
Q 2538 409 2786 701 
Q 3034 994 3034 1497 
Q 3034 2003 2786 2293 
Q 2538 2584 2113 2584 
z
M 3366 4563 
L 3366 3988 
Q 3128 4100 2886 4159 
Q 2644 4219 2406 4219 
Q 1781 4219 1451 3797 
Q 1122 3375 1075 2522 
Q 1259 2794 1537 2939 
Q 1816 3084 2150 3084 
Q 2853 3084 3261 2657 
Q 3669 2231 3669 1497 
Q 3669 778 3244 343 
Q 2819 -91 2113 -91 
Q 1303 -91 875 529 
Q 447 1150 447 2328 
Q 447 3434 972 4092 
Q 1497 4750 2381 4750 
Q 2619 4750 2861 4703 
Q 3103 4656 3366 4563 
z
" transform="scale(0.015625)"/>
       </defs>
       <use xlink:href="#DejaVuSans-30"/>
       <use xlink:href="#DejaVuSans-2e" x="63.623047"/>
       <use xlink:href="#DejaVuSans-36" x="95.410156"/>
      </g>
     </g>
    </g>
    <g id="ytick_5">
     <g id="line2d_10">
      <g>
       <use xlink:href="#m32d84204b8" x="72" y="177.581823" style="stroke: #000000; stroke-width: 0.8"/>
      </g>
     </g>
     <g id="text_10">
      <!-- 0.8 -->
      <g transform="translate(49.096875 181.381042) scale(0.1 -0.1)">
       <defs>
        <path id="DejaVuSans-38" d="M 2034 2216 
Q 1584 2216 1326 1975 
Q 1069 1734 1069 1313 
Q 1069 891 1326 650 
Q 1584 409 2034 409 
Q 2484 409 2743 651 
Q 3003 894 3003 1313 
Q 3003 1734 2745 1975 
Q 2488 2216 2034 2216 
z
M 1403 2484 
Q 997 2584 770 2862 
Q 544 3141 544 3541 
Q 544 4100 942 4425 
Q 1341 4750 2034 4750 
Q 2731 4750 3128 4425 
Q 3525 4100 3525 3541 
Q 3525 3141 3298 2862 
Q 3072 2584 2669 2484 
Q 3125 2378 3379 2068 
Q 3634 1759 3634 1313 
Q 3634 634 3220 271 
Q 2806 -91 2034 -91 
Q 1263 -91 848 271 
Q 434 634 434 1313 
Q 434 1759 690 2068 
Q 947 2378 1403 2484 
z
M 1172 3481 
Q 1172 3119 1398 2916 
Q 1625 2713 2034 2713 
Q 2441 2713 2670 2916 
Q 2900 3119 2900 3481 
Q 2900 3844 2670 4047 
Q 2441 4250 2034 4250 
Q 1625 4250 1398 4047 
Q 1172 3844 1172 3481 
z
" transform="scale(0.015625)"/>
       </defs>
       <use xlink:href="#DejaVuSans-30"/>
       <use xlink:href="#DejaVuSans-2e" x="63.623047"/>
       <use xlink:href="#DejaVuSans-38" x="95.410156"/>
      </g>
     </g>
    </g>
    <g id="ytick_6">
     <g id="line2d_11">
      <g>
       <use xlink:href="#m32d84204b8" x="72" y="102.049705" style="stroke: #000000; stroke-width: 0.8"/>
      </g>
     </g>
     <g id="text_11">
      <!-- 1.0 -->
      <g transform="translate(49.096875 105.848924) scale(0.1 -0.1)">
       <defs>
        <path id="DejaVuSans-31" d="M 794 531 
L 1825 531 
L 1825 4091 
L 703 3866 
L 703 4441 
L 1819 4666 
L 2450 4666 
L 2450 531 
L 3481 531 
L 3481 0 
L 794 0 
L 794 531 
z
" transform="scale(0.015625)"/>
       </defs>
       <use xlink:href="#DejaVuSans-31"/>
       <use xlink:href="#DejaVuSans-2e" x="63.623047"/>
       <use xlink:href="#DejaVuSans-30" x="95.410156"/>
      </g>
     </g>
    </g>
   </g>
   <g id="line2d_12">
    <path d="M 116.64 479.710295 
L 116.64 459.643728 
" clip-path="url(#p73ac87fb49)" style="fill: none; stroke: #3d3d3d; stroke-width: 1.875; stroke-linecap: square"/>
   </g>
   <g id="line2d_13">
    <path d="M 116.64 476.232757 
L 116.64 469.595243 
" clip-path="url(#p73ac87fb49)" style="fill: none; stroke: #3d3d3d; stroke-width: 5.625; stroke-linecap: square"/>
   </g>
   <g id="line2d_14">
    <path d="M 116.64 473.661067 
" clip-path="url(#p73ac87fb49)" style="fill: none; stroke: #3d3d3d; stroke-width: 1.5; stroke-linecap: square"/>
    <defs>
     <path id="m0bdf91d6da" d="M 2.34375 0 
L -2.34375 -0 
" style="stroke: #ffffff; stroke-width: 1.125"/>
    </defs>
    <g clip-path="url(#p73ac87fb49)">
     <use xlink:href="#m0bdf91d6da" x="116.64" y="473.661067" style="fill: #ffffff; stroke: #ffffff; stroke-width: 1.125"/>
    </g>
   </g>
   <g id="line2d_15">
    <path d="M 205.92 479.710295 
L 205.92 430.450218 
" clip-path="url(#p73ac87fb49)" style="fill: none; stroke: #3d3d3d; stroke-width: 1.875; stroke-linecap: square"/>
   </g>
   <g id="line2d_16">
    <path d="M 205.92 467.938243 
L 205.92 452.939418 
" clip-path="url(#p73ac87fb49)" style="fill: none; stroke: #3d3d3d; stroke-width: 5.625; stroke-linecap: square"/>
   </g>
   <g id="line2d_17">
    <path d="M 205.92 461.782622 
" clip-path="url(#p73ac87fb49)" style="fill: none; stroke: #3d3d3d; stroke-width: 1.5; stroke-linecap: square"/>
    <g clip-path="url(#p73ac87fb49)">
     <use xlink:href="#m0bdf91d6da" x="205.92" y="461.782622" style="fill: #ffffff; stroke: #ffffff; stroke-width: 1.125"/>
    </g>
   </g>
   <g id="line2d_18">
    <path d="M 295.2 475.895541 
L 295.2 325.507468 
" clip-path="url(#p73ac87fb49)" style="fill: none; stroke: #3d3d3d; stroke-width: 1.875; stroke-linecap: square"/>
   </g>
   <g id="line2d_19">
    <path d="M 295.2 421.542522 
L 295.2 383.118528 
" clip-path="url(#p73ac87fb49)" style="fill: none; stroke: #3d3d3d; stroke-width: 5.625; stroke-linecap: square"/>
   </g>
   <g id="line2d_20">
    <path d="M 295.2 402.997988 
" clip-path="url(#p73ac87fb49)" style="fill: none; stroke: #3d3d3d; stroke-width: 1.5; stroke-linecap: square"/>
    <g clip-path="url(#p73ac87fb49)">
     <use xlink:href="#m0bdf91d6da" x="295.2" y="402.997988" style="fill: #ffffff; stroke: #ffffff; stroke-width: 1.125"/>
    </g>
   </g>
   <g id="line2d_21">
    <path d="M 384.48 401.996744 
L 384.48 292.740397 
" clip-path="url(#p73ac87fb49)" style="fill: none; stroke: #3d3d3d; stroke-width: 1.875; stroke-linecap: square"/>
   </g>
   <g id="line2d_22">
    <path d="M 384.48 360.881405 
L 384.48 333.41602 
" clip-path="url(#p73ac87fb49)" style="fill: none; stroke: #3d3d3d; stroke-width: 5.625; stroke-linecap: square"/>
   </g>
   <g id="line2d_23">
    <path d="M 384.48 346.654691 
" clip-path="url(#p73ac87fb49)" style="fill: none; stroke: #3d3d3d; stroke-width: 1.5; stroke-linecap: square"/>
    <g clip-path="url(#p73ac87fb49)">
     <use xlink:href="#m0bdf91d6da" x="384.48" y="346.654691" style="fill: #ffffff; stroke: #ffffff; stroke-width: 1.125"/>
    </g>
   </g>
   <g id="line2d_24">
    <path d="M 473.76 464.900076 
L 473.76 217.42882 
" clip-path="url(#p73ac87fb49)" style="fill: none; stroke: #3d3d3d; stroke-width: 1.875; stroke-linecap: square"/>
   </g>
   <g id="line2d_25">
    <path d="M 473.76 373.311686 
L 473.76 310.821397 
" clip-path="url(#p73ac87fb49)" style="fill: none; stroke: #3d3d3d; stroke-width: 5.625; stroke-linecap: square"/>
   </g>
   <g id="line2d_26">
    <path d="M 473.76 344.179419 
" clip-path="url(#p73ac87fb49)" style="fill: none; stroke: #3d3d3d; stroke-width: 1.5; stroke-linecap: square"/>
    <g clip-path="url(#p73ac87fb49)">
     <use xlink:href="#m0bdf91d6da" x="473.76" y="344.179419" style="fill: #ffffff; stroke: #ffffff; stroke-width: 1.125"/>
    </g>
   </g>
   <g id="patch_3">
    <path d="M 72 512.64 
L 72 69.12 
" style="fill: none; stroke: #000000; stroke-width: 0.8; stroke-linejoin: miter; stroke-linecap: square"/>
   </g>
   <g id="patch_4">
    <path d="M 518.4 512.64 
L 518.4 69.12 
" style="fill: none; stroke: #000000; stroke-width: 0.8; stroke-linejoin: miter; stroke-linecap: square"/>
   </g>
   <g id="patch_5">
    <path d="M 72 512.64 
L 518.4 512.64 
" style="fill: none; stroke: #000000; stroke-width: 0.8; stroke-linejoin: miter; stroke-linecap: square"/>
   </g>
   <g id="patch_6">
    <path d="M 72 69.12 
L 518.4 69.12 
" style="fill: none; stroke: #000000; stroke-width: 0.8; stroke-linejoin: miter; stroke-linecap: square"/>
   </g>
  </g>
 </g>
 <defs>
  <clipPath id="p73ac87fb49">
   <rect x="72" y="69.12" width="446.4" height="443.52"/>
  </clipPath>
 </defs>
</svg>
