<?xml version="1.0" encoding="utf-8" standalone="no"?>
<!DOCTYPE svg PUBLIC "-//W3C//DTD SVG 1.1//EN"
  "http://www.w3.org/Graphics/SVG/1.1/DTD/svg11.dtd">
<svg xmlns:xlink="http://www.w3.org/1999/xlink" width="576pt" height="576pt" viewBox="0 0 576 576" xmlns="http://www.w3.org/2000/svg" version="1.1">
 <metadata>
  <rdf:RDF xmlns:dc="http://purl.org/dc/elements/1.1/" xmlns:cc="http://creativecommons.org/ns#" xmlns:rdf="http://www.w3.org/1999/02/22-rdf-syntax-ns#">
   <cc:Work>
    <dc:type rdf:resource="http://purl.org/dc/dcmitype/StillImage"/>
    <dc:date>2024-05-22T23:04:41.061808</dc:date>
    <dc:format>image/svg+xml</dc:format>
    <dc:creator>
     <cc:Agent>
      <dc:title>Matplotlib v3.8.0, https://matplotlib.org/</dc:title>
     </cc:Agent>
    </dc:creator>
   </cc:Work>
  </rdf:RDF>
 </metadata>
 <defs>
  <style type="text/css">*{stroke-linejoin: round; stroke-linecap: butt}</style>
 </defs>
 <g id="figure_1">
  <g id="patch_1">
   <path d="M 0 576 
L 576 576 
L 576 0 
L 0 0 
z
" style="fill: #ffffff"/>
  </g>
  <g id="axes_1">
   <g id="patch_2">
    <path d="M 72 512.64 
L 518.4 512.64 
L 518.4 69.12 
L 72 69.12 
z
" style="fill: #ffffff"/>
   </g>
   <g id="matplotlib.axis_1">
    <g id="xtick_1">
     <g id="line2d_1">
      <defs>
       <path id="m82b5977943" d="M 0 0 
L 0 3.5 
" style="stroke: #000000; stroke-width: 0.8"/>
      </defs>
      <g>
       <use xlink:href="#m82b5977943" x="295.2" y="512.64" style="stroke: #000000; stroke-width: 0.8"/>
      </g>
     </g>
    </g>
   </g>
   <g id="matplotlib.axis_2">
    <g id="ytick_1">
     <g id="line2d_2">
      <defs>
       <path id="m1a429549af" d="M 0 0 
L -3.5 0 
" style="stroke: #000000; stroke-width: 0.8"/>
      </defs>
      <g>
       <use xlink:href="#m1a429549af" x="72" y="487.0569" style="stroke: #000000; stroke-width: 0.8"/>
      </g>
     </g>
     <g id="text_1">
      <!-- 2.5 -->
      <g transform="translate(49.096875 490.856119) scale(0.1 -0.1)">
       <defs>
        <path id="DejaVuSans-32" d="M 1228 531 
L 3431 531 
L 3431 0 
L 469 0 
L 469 531 
Q 828 903 1448 1529 
Q 2069 2156 2228 2338 
Q 2531 2678 2651 2914 
Q 2772 3150 2772 3378 
Q 2772 3750 2511 3984 
Q 2250 4219 1831 4219 
Q 1534 4219 1204 4116 
Q 875 4013 500 3803 
L 500 4441 
Q 881 4594 1212 4672 
Q 1544 4750 1819 4750 
Q 2544 4750 2975 4387 
Q 3406 4025 3406 3419 
Q 3406 3131 3298 2873 
Q 3191 2616 2906 2266 
Q 2828 2175 2409 1742 
Q 1991 1309 1228 531 
z
" transform="scale(0.015625)"/>
        <path id="DejaVuSans-2e" d="M 684 794 
L 1344 794 
L 1344 0 
L 684 0 
L 684 794 
z
" transform="scale(0.015625)"/>
        <path id="DejaVuSans-35" d="M 691 4666 
L 3169 4666 
L 3169 4134 
L 1269 4134 
L 1269 2991 
Q 1406 3038 1543 3061 
Q 1681 3084 1819 3084 
Q 2600 3084 3056 2656 
Q 3513 2228 3513 1497 
Q 3513 744 3044 326 
Q 2575 -91 1722 -91 
Q 1428 -91 1123 -41 
Q 819 9 494 109 
L 494 744 
Q 775 591 1075 516 
Q 1375 441 1709 441 
Q 2250 441 2565 725 
Q 2881 1009 2881 1497 
Q 2881 1984 2565 2268 
Q 2250 2553 1709 2553 
Q 1456 2553 1204 2497 
Q 953 2441 691 2322 
L 691 4666 
z
" transform="scale(0.015625)"/>
       </defs>
       <use xlink:href="#DejaVuSans-32"/>
       <use xlink:href="#DejaVuSans-2e" x="63.623047"/>
       <use xlink:href="#DejaVuSans-35" x="95.410156"/>
      </g>
     </g>
    </g>
    <g id="ytick_2">
     <g id="line2d_3">
      <g>
       <use xlink:href="#m1a429549af" x="72" y="407.50152" style="stroke: #000000; stroke-width: 0.8"/>
      </g>
     </g>
     <g id="text_2">
      <!-- 3.0 -->
      <g transform="translate(49.096875 411.300739) scale(0.1 -0.1)">
       <defs>
        <path id="DejaVuSans-33" d="M 2597 2516 
Q 3050 2419 3304 2112 
Q 3559 1806 3559 1356 
Q 3559 666 3084 287 
Q 2609 -91 1734 -91 
Q 1441 -91 1130 -33 
Q 819 25 488 141 
L 488 750 
Q 750 597 1062 519 
Q 1375 441 1716 441 
Q 2309 441 2620 675 
Q 2931 909 2931 1356 
Q 2931 1769 2642 2001 
Q 2353 2234 1838 2234 
L 1294 2234 
L 1294 2753 
L 1863 2753 
Q 2328 2753 2575 2939 
Q 2822 3125 2822 3475 
Q 2822 3834 2567 4026 
Q 2313 4219 1838 4219 
Q 1578 4219 1281 4162 
Q 984 4106 628 3988 
L 628 4550 
Q 988 4650 1302 4700 
Q 1616 4750 1894 4750 
Q 2613 4750 3031 4423 
Q 3450 4097 3450 3541 
Q 3450 3153 3228 2886 
Q 3006 2619 2597 2516 
z
" transform="scale(0.015625)"/>
        <path id="DejaVuSans-30" d="M 2034 4250 
Q 1547 4250 1301 3770 
Q 1056 3291 1056 2328 
Q 1056 1369 1301 889 
Q 1547 409 2034 409 
Q 2525 409 2770 889 
Q 3016 1369 3016 2328 
Q 3016 3291 2770 3770 
Q 2525 4250 2034 4250 
z
M 2034 4750 
Q 2819 4750 3233 4129 
Q 3647 3509 3647 2328 
Q 3647 1150 3233 529 
Q 2819 -91 2034 -91 
Q 1250 -91 836 529 
Q 422 1150 422 2328 
Q 422 3509 836 4129 
Q 1250 4750 2034 4750 
z
" transform="scale(0.015625)"/>
       </defs>
       <use xlink:href="#DejaVuSans-33"/>
       <use xlink:href="#DejaVuSans-2e" x="63.623047"/>
       <use xlink:href="#DejaVuSans-30" x="95.410156"/>
      </g>
     </g>
    </g>
    <g id="ytick_3">
     <g id="line2d_4">
      <g>
       <use xlink:href="#m1a429549af" x="72" y="327.94614" style="stroke: #000000; stroke-width: 0.8"/>
      </g>
     </g>
     <g id="text_3">
      <!-- 3.5 -->
      <g transform="translate(49.096875 331.745359) scale(0.1 -0.1)">
       <use xlink:href="#DejaVuSans-33"/>
       <use xlink:href="#DejaVuSans-2e" x="63.623047"/>
       <use xlink:href="#DejaVuSans-35" x="95.410156"/>
      </g>
     </g>
    </g>
    <g id="ytick_4">
     <g id="line2d_5">
      <g>
       <use xlink:href="#m1a429549af" x="72" y="248.39076" style="stroke: #000000; stroke-width: 0.8"/>
      </g>
     </g>
     <g id="text_4">
      <!-- 4.0 -->
      <g transform="translate(49.096875 252.189979) scale(0.1 -0.1)">
       <defs>
        <path id="DejaVuSans-34" d="M 2419 4116 
L 825 1625 
L 2419 1625 
L 2419 4116 
z
M 2253 4666 
L 3047 4666 
L 3047 1625 
L 3713 1625 
L 3713 1100 
L 3047 1100 
L 3047 0 
L 2419 0 
L 2419 1100 
L 313 1100 
L 313 1709 
L 2253 4666 
z
" transform="scale(0.015625)"/>
       </defs>
       <use xlink:href="#DejaVuSans-34"/>
       <use xlink:href="#DejaVuSans-2e" x="63.623047"/>
       <use xlink:href="#DejaVuSans-30" x="95.410156"/>
      </g>
     </g>
    </g>
    <g id="ytick_5">
     <g id="line2d_6">
      <g>
       <use xlink:href="#m1a429549af" x="72" y="168.83538" style="stroke: #000000; stroke-width: 0.8"/>
      </g>
     </g>
     <g id="text_5">
      <!-- 4.5 -->
      <g transform="translate(49.096875 172.634599) scale(0.1 -0.1)">
       <use xlink:href="#DejaVuSans-34"/>
       <use xlink:href="#DejaVuSans-2e" x="63.623047"/>
       <use xlink:href="#DejaVuSans-35" x="95.410156"/>
      </g>
     </g>
    </g>
    <g id="ytick_6">
     <g id="line2d_7">
      <g>
       <use xlink:href="#m1a429549af" x="72" y="89.28" style="stroke: #000000; stroke-width: 0.8"/>
      </g>
     </g>
     <g id="text_6">
      <!-- 5.0 -->
      <g transform="translate(49.096875 93.079219) scale(0.1 -0.1)">
       <use xlink:href="#DejaVuSans-35"/>
       <use xlink:href="#DejaVuSans-2e" x="63.623047"/>
       <use xlink:href="#DejaVuSans-30" x="95.410156"/>
      </g>
     </g>
    </g>
    <g id="text_7">
     <!-- average_rating -->
     <g transform="translate(42.739062 328.662031) rotate(-90) scale(0.1 -0.1)">
      <defs>
       <path id="DejaVuSans-61" d="M 2194 1759 
Q 1497 1759 1228 1600 
Q 959 1441 959 1056 
Q 959 750 1161 570 
Q 1363 391 1709 391 
Q 2188 391 2477 730 
Q 2766 1069 2766 1631 
L 2766 1759 
L 2194 1759 
z
M 3341 1997 
L 3341 0 
L 2766 0 
L 2766 531 
Q 2569 213 2275 61 
Q 1981 -91 1556 -91 
Q 1019 -91 701 211 
Q 384 513 384 1019 
Q 384 1609 779 1909 
Q 1175 2209 1959 2209 
L 2766 2209 
L 2766 2266 
Q 2766 2663 2505 2880 
Q 2244 3097 1772 3097 
Q 1472 3097 1187 3025 
Q 903 2953 641 2809 
L 641 3341 
Q 956 3463 1253 3523 
Q 1550 3584 1831 3584 
Q 2591 3584 2966 3190 
Q 3341 2797 3341 1997 
z
" transform="scale(0.015625)"/>
       <path id="DejaVuSans-76" d="M 191 3500 
L 800 3500 
L 1894 563 
L 2988 3500 
L 3597 3500 
L 2284 0 
L 1503 0 
L 191 3500 
z
" transform="scale(0.015625)"/>
       <path id="DejaVuSans-65" d="M 3597 1894 
L 3597 1613 
L 953 1613 
Q 991 1019 1311 708 
Q 1631 397 2203 397 
Q 2534 397 2845 478 
Q 3156 559 3463 722 
L 3463 178 
Q 3153 47 2828 -22 
Q 2503 -91 2169 -91 
Q 1331 -91 842 396 
Q 353 884 353 1716 
Q 353 2575 817 3079 
Q 1281 3584 2069 3584 
Q 2775 3584 3186 3129 
Q 3597 2675 3597 1894 
z
M 3022 2063 
Q 3016 2534 2758 2815 
Q 2500 3097 2075 3097 
Q 1594 3097 1305 2825 
Q 1016 2553 972 2059 
L 3022 2063 
z
" transform="scale(0.015625)"/>
       <path id="DejaVuSans-72" d="M 2631 2963 
Q 2534 3019 2420 3045 
Q 2306 3072 2169 3072 
Q 1681 3072 1420 2755 
Q 1159 2438 1159 1844 
L 1159 0 
L 581 0 
L 581 3500 
L 1159 3500 
L 1159 2956 
Q 1341 3275 1631 3429 
Q 1922 3584 2338 3584 
Q 2397 3584 2469 3576 
Q 2541 3569 2628 3553 
L 2631 2963 
z
" transform="scale(0.015625)"/>
       <path id="DejaVuSans-67" d="M 2906 1791 
Q 2906 2416 2648 2759 
Q 2391 3103 1925 3103 
Q 1463 3103 1205 2759 
Q 947 2416 947 1791 
Q 947 1169 1205 825 
Q 1463 481 1925 481 
Q 2391 481 2648 825 
Q 2906 1169 2906 1791 
z
M 3481 434 
Q 3481 -459 3084 -895 
Q 2688 -1331 1869 -1331 
Q 1566 -1331 1297 -1286 
Q 1028 -1241 775 -1147 
L 775 -588 
Q 1028 -725 1275 -790 
Q 1522 -856 1778 -856 
Q 2344 -856 2625 -561 
Q 2906 -266 2906 331 
L 2906 616 
Q 2728 306 2450 153 
Q 2172 0 1784 0 
Q 1141 0 747 490 
Q 353 981 353 1791 
Q 353 2603 747 3093 
Q 1141 3584 1784 3584 
Q 2172 3584 2450 3431 
Q 2728 3278 2906 2969 
L 2906 3500 
L 3481 3500 
L 3481 434 
z
" transform="scale(0.015625)"/>
       <path id="DejaVuSans-5f" d="M 3263 -1063 
L 3263 -1509 
L -63 -1509 
L -63 -1063 
L 3263 -1063 
z
" transform="scale(0.015625)"/>
       <path id="DejaVuSans-74" d="M 1172 4494 
L 1172 3500 
L 2356 3500 
L 2356 3053 
L 1172 3053 
L 1172 1153 
Q 1172 725 1289 603 
Q 1406 481 1766 481 
L 2356 481 
L 2356 0 
L 1766 0 
Q 1100 0 847 248 
Q 594 497 594 1153 
L 594 3053 
L 172 3053 
L 172 3500 
L 594 3500 
L 594 4494 
L 1172 4494 
z
" transform="scale(0.015625)"/>
       <path id="DejaVuSans-69" d="M 603 3500 
L 1178 3500 
L 1178 0 
L 603 0 
L 603 3500 
z
M 603 4863 
L 1178 4863 
L 1178 4134 
L 603 4134 
L 603 4863 
z
" transform="scale(0.015625)"/>
       <path id="DejaVuSans-6e" d="M 3513 2113 
L 3513 0 
L 2938 0 
L 2938 2094 
Q 2938 2591 2744 2837 
Q 2550 3084 2163 3084 
Q 1697 3084 1428 2787 
Q 1159 2491 1159 1978 
L 1159 0 
L 581 0 
L 581 3500 
L 1159 3500 
L 1159 2956 
Q 1366 3272 1645 3428 
Q 1925 3584 2291 3584 
Q 2894 3584 3203 3211 
Q 3513 2838 3513 2113 
z
" transform="scale(0.015625)"/>
      </defs>
      <use xlink:href="#DejaVuSans-61"/>
      <use xlink:href="#DejaVuSans-76" x="61.279297"/>
      <use xlink:href="#DejaVuSans-65" x="120.458984"/>
      <use xlink:href="#DejaVuSans-72" x="181.982422"/>
      <use xlink:href="#DejaVuSans-61" x="223.095703"/>
      <use xlink:href="#DejaVuSans-67" x="284.375"/>
      <use xlink:href="#DejaVuSans-65" x="347.851562"/>
      <use xlink:href="#DejaVuSans-5f" x="409.375"/>
      <use xlink:href="#DejaVuSans-72" x="459.375"/>
      <use xlink:href="#DejaVuSans-61" x="500.488281"/>
      <use xlink:href="#DejaVuSans-74" x="561.767578"/>
      <use xlink:href="#DejaVuSans-69" x="600.976562"/>
      <use xlink:href="#DejaVuSans-6e" x="628.759766"/>
      <use xlink:href="#DejaVuSans-67" x="692.138672"/>
     </g>
    </g>
   </g>
   <g id="patch_3">
    <path d="M 116.64 278.064149 
L 473.76 278.064149 
L 473.76 219.981206 
L 116.64 219.981206 
L 116.64 278.064149 
z
" clip-path="url(#p0c7621570a)" style="fill: #3274a1; stroke: #3f3f3f; stroke-linejoin: miter"/>
   </g>
   <g id="line2d_8">
    <path d="M 295.2 278.064149 
L 295.2 365.071984 
" clip-path="url(#p0c7621570a)" style="fill: none; stroke: #3f3f3f"/>
   </g>
   <g id="line2d_9">
    <path d="M 295.2 219.981206 
L 295.2 133.035459 
" clip-path="url(#p0c7621570a)" style="fill: none; stroke: #3f3f3f"/>
   </g>
   <g id="line2d_10">
    <path d="M 205.92 365.071984 
L 384.48 365.071984 
" clip-path="url(#p0c7621570a)" style="fill: none; stroke: #3f3f3f; stroke-linecap: square"/>
   </g>
   <g id="line2d_11">
    <path d="M 205.92 133.035459 
L 384.48 133.035459 
" clip-path="url(#p0c7621570a)" style="fill: none; stroke: #3f3f3f; stroke-linecap: square"/>
   </g>
   <g id="line2d_12">
    <defs>
     <path id="m26aa0958ac" d="M 0 3 
C 0.795609 3 1.55874 2.683901 2.12132 2.12132 
C 2.683901 1.55874 3 0.795609 3 0 
C 3 -0.795609 2.683901 -1.55874 2.12132 -2.12132 
C 1.55874 -2.683901 0.795609 -3 0 -3 
C -0.795609 -3 -1.55874 -2.683901 -2.12132 -2.12132 
C -2.683901 -1.55874 -3 -0.795609 -3 0 
C -3 0.795609 -2.683901 1.55874 -2.12132 2.12132 
C -1.55874 2.683901 -0.795609 3 0 3 
z
" style="stroke: #3f3f3f"/>
    </defs>
    <g clip-path="url(#p0c7621570a)">
     <use xlink:href="#m26aa0958ac" x="295.2" y="432.664102" style="fill-opacity: 0; stroke: #3f3f3f"/>
     <use xlink:href="#m26aa0958ac" x="295.2" y="388.871463" style="fill-opacity: 0; stroke: #3f3f3f"/>
     <use xlink:href="#m26aa0958ac" x="295.2" y="406.223522" style="fill-opacity: 0; stroke: #3f3f3f"/>
     <use xlink:href="#m26aa0958ac" x="295.2" y="380.720501" style="fill-opacity: 0; stroke: #3f3f3f"/>
     <use xlink:href="#m26aa0958ac" x="295.2" y="382.149459" style="fill-opacity: 0; stroke: #3f3f3f"/>
     <use xlink:href="#m26aa0958ac" x="295.2" y="368.221941" style="fill-opacity: 0; stroke: #3f3f3f"/>
     <use xlink:href="#m26aa0958ac" x="295.2" y="365.224608" style="fill-opacity: 0; stroke: #3f3f3f"/>
     <use xlink:href="#m26aa0958ac" x="295.2" y="404.677069" style="fill-opacity: 0; stroke: #3f3f3f"/>
     <use xlink:href="#m26aa0958ac" x="295.2" y="383.036882" style="fill-opacity: 0; stroke: #3f3f3f"/>
     <use xlink:href="#m26aa0958ac" x="295.2" y="487.0569" style="fill-opacity: 0; stroke: #3f3f3f"/>
     <use xlink:href="#m26aa0958ac" x="295.2" y="369.645114" style="fill-opacity: 0; stroke: #3f3f3f"/>
     <use xlink:href="#m26aa0958ac" x="295.2" y="400.969792" style="fill-opacity: 0; stroke: #3f3f3f"/>
     <use xlink:href="#m26aa0958ac" x="295.2" y="370.682501" style="fill-opacity: 0; stroke: #3f3f3f"/>
     <use xlink:href="#m26aa0958ac" x="295.2" y="372.880594" style="fill-opacity: 0; stroke: #3f3f3f"/>
     <use xlink:href="#m26aa0958ac" x="295.2" y="423.100614" style="fill-opacity: 0; stroke: #3f3f3f"/>
     <use xlink:href="#m26aa0958ac" x="295.2" y="365.721698" style="fill-opacity: 0; stroke: #3f3f3f"/>
     <use xlink:href="#m26aa0958ac" x="295.2" y="385.301647" style="fill-opacity: 0; stroke: #3f3f3f"/>
     <use xlink:href="#m26aa0958ac" x="295.2" y="370.050343" style="fill-opacity: 0; stroke: #3f3f3f"/>
     <use xlink:href="#m26aa0958ac" x="295.2" y="380.646165" style="fill-opacity: 0; stroke: #3f3f3f"/>
     <use xlink:href="#m26aa0958ac" x="295.2" y="374.054814" style="fill-opacity: 0; stroke: #3f3f3f"/>
     <use xlink:href="#m26aa0958ac" x="295.2" y="368.103357" style="fill-opacity: 0; stroke: #3f3f3f"/>
     <use xlink:href="#m26aa0958ac" x="295.2" y="423.858701" style="fill-opacity: 0; stroke: #3f3f3f"/>
     <use xlink:href="#m26aa0958ac" x="295.2" y="389.537402" style="fill-opacity: 0; stroke: #3f3f3f"/>
     <use xlink:href="#m26aa0958ac" x="295.2" y="374.404208" style="fill-opacity: 0; stroke: #3f3f3f"/>
     <use xlink:href="#m26aa0958ac" x="295.2" y="371.521385" style="fill-opacity: 0; stroke: #3f3f3f"/>
     <use xlink:href="#m26aa0958ac" x="295.2" y="369.269151" style="fill-opacity: 0; stroke: #3f3f3f"/>
     <use xlink:href="#m26aa0958ac" x="295.2" y="365.455804" style="fill-opacity: 0; stroke: #3f3f3f"/>
     <use xlink:href="#m26aa0958ac" x="295.2" y="406.72537" style="fill-opacity: 0; stroke: #3f3f3f"/>
     <use xlink:href="#m26aa0958ac" x="295.2" y="373.485695" style="fill-opacity: 0; stroke: #3f3f3f"/>
     <use xlink:href="#m26aa0958ac" x="295.2" y="367.479795" style="fill-opacity: 0; stroke: #3f3f3f"/>
     <use xlink:href="#m26aa0958ac" x="295.2" y="400.551284" style="fill-opacity: 0; stroke: #3f3f3f"/>
     <use xlink:href="#m26aa0958ac" x="295.2" y="373.501823" style="fill-opacity: 0; stroke: #3f3f3f"/>
     <use xlink:href="#m26aa0958ac" x="295.2" y="387.141376" style="fill-opacity: 0; stroke: #3f3f3f"/>
     <use xlink:href="#m26aa0958ac" x="295.2" y="373.158887" style="fill-opacity: 0; stroke: #3f3f3f"/>
     <use xlink:href="#m26aa0958ac" x="295.2" y="421.099572" style="fill-opacity: 0; stroke: #3f3f3f"/>
     <use xlink:href="#m26aa0958ac" x="295.2" y="434.444276" style="fill-opacity: 0; stroke: #3f3f3f"/>
     <use xlink:href="#m26aa0958ac" x="295.2" y="379.814846" style="fill-opacity: 0; stroke: #3f3f3f"/>
     <use xlink:href="#m26aa0958ac" x="295.2" y="372.574768" style="fill-opacity: 0; stroke: #3f3f3f"/>
     <use xlink:href="#m26aa0958ac" x="295.2" y="367.426242" style="fill-opacity: 0; stroke: #3f3f3f"/>
     <use xlink:href="#m26aa0958ac" x="295.2" y="373.322172" style="fill-opacity: 0; stroke: #3f3f3f"/>
     <use xlink:href="#m26aa0958ac" x="295.2" y="421.274859" style="fill-opacity: 0; stroke: #3f3f3f"/>
     <use xlink:href="#m26aa0958ac" x="295.2" y="405.212157" style="fill-opacity: 0; stroke: #3f3f3f"/>
     <use xlink:href="#m26aa0958ac" x="295.2" y="426.949262" style="fill-opacity: 0; stroke: #3f3f3f"/>
     <use xlink:href="#m26aa0958ac" x="295.2" y="392.920781" style="fill-opacity: 0; stroke: #3f3f3f"/>
     <use xlink:href="#m26aa0958ac" x="295.2" y="372.912225" style="fill-opacity: 0; stroke: #3f3f3f"/>
     <use xlink:href="#m26aa0958ac" x="295.2" y="380.593083" style="fill-opacity: 0; stroke: #3f3f3f"/>
     <use xlink:href="#m26aa0958ac" x="295.2" y="377.264933" style="fill-opacity: 0; stroke: #3f3f3f"/>
     <use xlink:href="#m26aa0958ac" x="295.2" y="369.234375" style="fill-opacity: 0; stroke: #3f3f3f"/>
     <use xlink:href="#m26aa0958ac" x="295.2" y="404.623691" style="fill-opacity: 0; stroke: #3f3f3f"/>
     <use xlink:href="#m26aa0958ac" x="295.2" y="391.483658" style="fill-opacity: 0; stroke: #3f3f3f"/>
     <use xlink:href="#m26aa0958ac" x="295.2" y="369.333332" style="fill-opacity: 0; stroke: #3f3f3f"/>
     <use xlink:href="#m26aa0958ac" x="295.2" y="394.772659" style="fill-opacity: 0; stroke: #3f3f3f"/>
     <use xlink:href="#m26aa0958ac" x="295.2" y="412.127648" style="fill-opacity: 0; stroke: #3f3f3f"/>
     <use xlink:href="#m26aa0958ac" x="295.2" y="398.783122" style="fill-opacity: 0; stroke: #3f3f3f"/>
     <use xlink:href="#m26aa0958ac" x="295.2" y="456.274165" style="fill-opacity: 0; stroke: #3f3f3f"/>
     <use xlink:href="#m26aa0958ac" x="295.2" y="382.640464" style="fill-opacity: 0; stroke: #3f3f3f"/>
     <use xlink:href="#m26aa0958ac" x="295.2" y="407.50152" style="fill-opacity: 0; stroke: #3f3f3f"/>
     <use xlink:href="#m26aa0958ac" x="295.2" y="368.261367" style="fill-opacity: 0; stroke: #3f3f3f"/>
     <use xlink:href="#m26aa0958ac" x="295.2" y="368.694018" style="fill-opacity: 0; stroke: #3f3f3f"/>
     <use xlink:href="#m26aa0958ac" x="295.2" y="394.247535" style="fill-opacity: 0; stroke: #3f3f3f"/>
     <use xlink:href="#m26aa0958ac" x="295.2" y="400.319437" style="fill-opacity: 0; stroke: #3f3f3f"/>
     <use xlink:href="#m26aa0958ac" x="295.2" y="367.000599" style="fill-opacity: 0; stroke: #3f3f3f"/>
     <use xlink:href="#m26aa0958ac" x="295.2" y="381.708829" style="fill-opacity: 0; stroke: #3f3f3f"/>
     <use xlink:href="#m26aa0958ac" x="295.2" y="368.897906" style="fill-opacity: 0; stroke: #3f3f3f"/>
     <use xlink:href="#m26aa0958ac" x="295.2" y="392.89135" style="fill-opacity: 0; stroke: #3f3f3f"/>
     <use xlink:href="#m26aa0958ac" x="295.2" y="377.070363" style="fill-opacity: 0; stroke: #3f3f3f"/>
     <use xlink:href="#m26aa0958ac" x="295.2" y="366.982631" style="fill-opacity: 0; stroke: #3f3f3f"/>
     <use xlink:href="#m26aa0958ac" x="295.2" y="380.872104" style="fill-opacity: 0; stroke: #3f3f3f"/>
     <use xlink:href="#m26aa0958ac" x="295.2" y="398.640496" style="fill-opacity: 0; stroke: #3f3f3f"/>
     <use xlink:href="#m26aa0958ac" x="295.2" y="487.0569" style="fill-opacity: 0; stroke: #3f3f3f"/>
     <use xlink:href="#m26aa0958ac" x="295.2" y="375.001767" style="fill-opacity: 0; stroke: #3f3f3f"/>
     <use xlink:href="#m26aa0958ac" x="295.2" y="412.988098" style="fill-opacity: 0; stroke: #3f3f3f"/>
     <use xlink:href="#m26aa0958ac" x="295.2" y="375.679368" style="fill-opacity: 0; stroke: #3f3f3f"/>
     <use xlink:href="#m26aa0958ac" x="295.2" y="375.679368" style="fill-opacity: 0; stroke: #3f3f3f"/>
     <use xlink:href="#m26aa0958ac" x="295.2" y="386.747943" style="fill-opacity: 0; stroke: #3f3f3f"/>
     <use xlink:href="#m26aa0958ac" x="295.2" y="386.320293" style="fill-opacity: 0; stroke: #3f3f3f"/>
     <use xlink:href="#m26aa0958ac" x="295.2" y="475.691846" style="fill-opacity: 0; stroke: #3f3f3f"/>
     <use xlink:href="#m26aa0958ac" x="295.2" y="404.346961" style="fill-opacity: 0; stroke: #3f3f3f"/>
     <use xlink:href="#m26aa0958ac" x="295.2" y="419.420467" style="fill-opacity: 0; stroke: #3f3f3f"/>
     <use xlink:href="#m26aa0958ac" x="295.2" y="372.143574" style="fill-opacity: 0; stroke: #3f3f3f"/>
     <use xlink:href="#m26aa0958ac" x="295.2" y="367.111866" style="fill-opacity: 0; stroke: #3f3f3f"/>
     <use xlink:href="#m26aa0958ac" x="295.2" y="386.286752" style="fill-opacity: 0; stroke: #3f3f3f"/>
     <use xlink:href="#m26aa0958ac" x="295.2" y="466.957814" style="fill-opacity: 0; stroke: #3f3f3f"/>
     <use xlink:href="#m26aa0958ac" x="295.2" y="418.098665" style="fill-opacity: 0; stroke: #3f3f3f"/>
     <use xlink:href="#m26aa0958ac" x="295.2" y="382.170454" style="fill-opacity: 0; stroke: #3f3f3f"/>
     <use xlink:href="#m26aa0958ac" x="295.2" y="382.23369" style="fill-opacity: 0; stroke: #3f3f3f"/>
     <use xlink:href="#m26aa0958ac" x="295.2" y="371.155729" style="fill-opacity: 0; stroke: #3f3f3f"/>
     <use xlink:href="#m26aa0958ac" x="295.2" y="448.059165" style="fill-opacity: 0; stroke: #3f3f3f"/>
     <use xlink:href="#m26aa0958ac" x="295.2" y="447.27921" style="fill-opacity: 0; stroke: #3f3f3f"/>
     <use xlink:href="#m26aa0958ac" x="295.2" y="366.587325" style="fill-opacity: 0; stroke: #3f3f3f"/>
     <use xlink:href="#m26aa0958ac" x="295.2" y="371.842359" style="fill-opacity: 0; stroke: #3f3f3f"/>
     <use xlink:href="#m26aa0958ac" x="295.2" y="366.982631" style="fill-opacity: 0; stroke: #3f3f3f"/>
     <use xlink:href="#m26aa0958ac" x="295.2" y="367.72383" style="fill-opacity: 0; stroke: #3f3f3f"/>
     <use xlink:href="#m26aa0958ac" x="295.2" y="372.302781" style="fill-opacity: 0; stroke: #3f3f3f"/>
     <use xlink:href="#m26aa0958ac" x="295.2" y="382.693929" style="fill-opacity: 0; stroke: #3f3f3f"/>
     <use xlink:href="#m26aa0958ac" x="295.2" y="390.878008" style="fill-opacity: 0; stroke: #3f3f3f"/>
     <use xlink:href="#m26aa0958ac" x="295.2" y="418.420886" style="fill-opacity: 0; stroke: #3f3f3f"/>
     <use xlink:href="#m26aa0958ac" x="295.2" y="391.204008" style="fill-opacity: 0; stroke: #3f3f3f"/>
     <use xlink:href="#m26aa0958ac" x="295.2" y="388.619073" style="fill-opacity: 0; stroke: #3f3f3f"/>
     <use xlink:href="#m26aa0958ac" x="295.2" y="412.259211" style="fill-opacity: 0; stroke: #3f3f3f"/>
     <use xlink:href="#m26aa0958ac" x="295.2" y="365.903936" style="fill-opacity: 0; stroke: #3f3f3f"/>
     <use xlink:href="#m26aa0958ac" x="295.2" y="366.763016" style="fill-opacity: 0; stroke: #3f3f3f"/>
     <use xlink:href="#m26aa0958ac" x="295.2" y="393.064249" style="fill-opacity: 0; stroke: #3f3f3f"/>
     <use xlink:href="#m26aa0958ac" x="295.2" y="396.630599" style="fill-opacity: 0; stroke: #3f3f3f"/>
     <use xlink:href="#m26aa0958ac" x="295.2" y="369.40514" style="fill-opacity: 0; stroke: #3f3f3f"/>
     <use xlink:href="#m26aa0958ac" x="295.2" y="433.164546" style="fill-opacity: 0; stroke: #3f3f3f"/>
     <use xlink:href="#m26aa0958ac" x="295.2" y="375.944185" style="fill-opacity: 0; stroke: #3f3f3f"/>
     <use xlink:href="#m26aa0958ac" x="295.2" y="368.214913" style="fill-opacity: 0; stroke: #3f3f3f"/>
     <use xlink:href="#m26aa0958ac" x="295.2" y="372.696041" style="fill-opacity: 0; stroke: #3f3f3f"/>
     <use xlink:href="#m26aa0958ac" x="295.2" y="387.612675" style="fill-opacity: 0; stroke: #3f3f3f"/>
     <use xlink:href="#m26aa0958ac" x="295.2" y="369.197078" style="fill-opacity: 0; stroke: #3f3f3f"/>
     <use xlink:href="#m26aa0958ac" x="295.2" y="375.182147" style="fill-opacity: 0; stroke: #3f3f3f"/>
     <use xlink:href="#m26aa0958ac" x="295.2" y="385.591993" style="fill-opacity: 0; stroke: #3f3f3f"/>
     <use xlink:href="#m26aa0958ac" x="295.2" y="370.063694" style="fill-opacity: 0; stroke: #3f3f3f"/>
     <use xlink:href="#m26aa0958ac" x="295.2" y="365.584306" style="fill-opacity: 0; stroke: #3f3f3f"/>
     <use xlink:href="#m26aa0958ac" x="295.2" y="403.62077" style="fill-opacity: 0; stroke: #3f3f3f"/>
     <use xlink:href="#m26aa0958ac" x="295.2" y="381.248696" style="fill-opacity: 0; stroke: #3f3f3f"/>
     <use xlink:href="#m26aa0958ac" x="295.2" y="368.798903" style="fill-opacity: 0; stroke: #3f3f3f"/>
     <use xlink:href="#m26aa0958ac" x="295.2" y="381.599769" style="fill-opacity: 0; stroke: #3f3f3f"/>
     <use xlink:href="#m26aa0958ac" x="295.2" y="407.50152" style="fill-opacity: 0; stroke: #3f3f3f"/>
     <use xlink:href="#m26aa0958ac" x="295.2" y="374.560621" style="fill-opacity: 0; stroke: #3f3f3f"/>
     <use xlink:href="#m26aa0958ac" x="295.2" y="394.24229" style="fill-opacity: 0; stroke: #3f3f3f"/>
     <use xlink:href="#m26aa0958ac" x="295.2" y="390.954001" style="fill-opacity: 0; stroke: #3f3f3f"/>
     <use xlink:href="#m26aa0958ac" x="295.2" y="455.234748" style="fill-opacity: 0; stroke: #3f3f3f"/>
     <use xlink:href="#m26aa0958ac" x="295.2" y="378.765631" style="fill-opacity: 0; stroke: #3f3f3f"/>
     <use xlink:href="#m26aa0958ac" x="295.2" y="426.118299" style="fill-opacity: 0; stroke: #3f3f3f"/>
     <use xlink:href="#m26aa0958ac" x="295.2" y="367.873935" style="fill-opacity: 0; stroke: #3f3f3f"/>
     <use xlink:href="#m26aa0958ac" x="295.2" y="376.218727" style="fill-opacity: 0; stroke: #3f3f3f"/>
     <use xlink:href="#m26aa0958ac" x="295.2" y="367.160761" style="fill-opacity: 0; stroke: #3f3f3f"/>
     <use xlink:href="#m26aa0958ac" x="295.2" y="416.341007" style="fill-opacity: 0; stroke: #3f3f3f"/>
     <use xlink:href="#m26aa0958ac" x="295.2" y="408.967979" style="fill-opacity: 0; stroke: #3f3f3f"/>
     <use xlink:href="#m26aa0958ac" x="295.2" y="380.509516" style="fill-opacity: 0; stroke: #3f3f3f"/>
     <use xlink:href="#m26aa0958ac" x="295.2" y="365.709177" style="fill-opacity: 0; stroke: #3f3f3f"/>
     <use xlink:href="#m26aa0958ac" x="295.2" y="422.800632" style="fill-opacity: 0; stroke: #3f3f3f"/>
     <use xlink:href="#m26aa0958ac" x="295.2" y="366.801468" style="fill-opacity: 0; stroke: #3f3f3f"/>
     <use xlink:href="#m26aa0958ac" x="295.2" y="418.488708" style="fill-opacity: 0; stroke: #3f3f3f"/>
     <use xlink:href="#m26aa0958ac" x="295.2" y="382.908982" style="fill-opacity: 0; stroke: #3f3f3f"/>
     <use xlink:href="#m26aa0958ac" x="295.2" y="402.857944" style="fill-opacity: 0; stroke: #3f3f3f"/>
     <use xlink:href="#m26aa0958ac" x="295.2" y="390.038144" style="fill-opacity: 0; stroke: #3f3f3f"/>
     <use xlink:href="#m26aa0958ac" x="295.2" y="368.694018" style="fill-opacity: 0; stroke: #3f3f3f"/>
     <use xlink:href="#m26aa0958ac" x="295.2" y="370.968363" style="fill-opacity: 0; stroke: #3f3f3f"/>
     <use xlink:href="#m26aa0958ac" x="295.2" y="372.001858" style="fill-opacity: 0; stroke: #3f3f3f"/>
     <use xlink:href="#m26aa0958ac" x="295.2" y="376.547668" style="fill-opacity: 0; stroke: #3f3f3f"/>
     <use xlink:href="#m26aa0958ac" x="295.2" y="386.780119" style="fill-opacity: 0; stroke: #3f3f3f"/>
     <use xlink:href="#m26aa0958ac" x="295.2" y="383.475576" style="fill-opacity: 0; stroke: #3f3f3f"/>
     <use xlink:href="#m26aa0958ac" x="295.2" y="396.136466" style="fill-opacity: 0; stroke: #3f3f3f"/>
     <use xlink:href="#m26aa0958ac" x="295.2" y="388.810798" style="fill-opacity: 0; stroke: #3f3f3f"/>
     <use xlink:href="#m26aa0958ac" x="295.2" y="379.601112" style="fill-opacity: 0; stroke: #3f3f3f"/>
     <use xlink:href="#m26aa0958ac" x="295.2" y="368.474353" style="fill-opacity: 0; stroke: #3f3f3f"/>
     <use xlink:href="#m26aa0958ac" x="295.2" y="381.308394" style="fill-opacity: 0; stroke: #3f3f3f"/>
     <use xlink:href="#m26aa0958ac" x="295.2" y="492.48" style="fill-opacity: 0; stroke: #3f3f3f"/>
     <use xlink:href="#m26aa0958ac" x="295.2" y="454.906945" style="fill-opacity: 0; stroke: #3f3f3f"/>
     <use xlink:href="#m26aa0958ac" x="295.2" y="372.84712" style="fill-opacity: 0; stroke: #3f3f3f"/>
     <use xlink:href="#m26aa0958ac" x="295.2" y="373.534055" style="fill-opacity: 0; stroke: #3f3f3f"/>
     <use xlink:href="#m26aa0958ac" x="295.2" y="383.230387" style="fill-opacity: 0; stroke: #3f3f3f"/>
     <use xlink:href="#m26aa0958ac" x="295.2" y="374.353445" style="fill-opacity: 0; stroke: #3f3f3f"/>
     <use xlink:href="#m26aa0958ac" x="295.2" y="387.70107" style="fill-opacity: 0; stroke: #3f3f3f"/>
     <use xlink:href="#m26aa0958ac" x="295.2" y="387.051395" style="fill-opacity: 0; stroke: #3f3f3f"/>
     <use xlink:href="#m26aa0958ac" x="295.2" y="371.326049" style="fill-opacity: 0; stroke: #3f3f3f"/>
     <use xlink:href="#m26aa0958ac" x="295.2" y="369.250372" style="fill-opacity: 0; stroke: #3f3f3f"/>
     <use xlink:href="#m26aa0958ac" x="295.2" y="406.894227" style="fill-opacity: 0; stroke: #3f3f3f"/>
     <use xlink:href="#m26aa0958ac" x="295.2" y="375.838678" style="fill-opacity: 0; stroke: #3f3f3f"/>
     <use xlink:href="#m26aa0958ac" x="295.2" y="367.85802" style="fill-opacity: 0; stroke: #3f3f3f"/>
     <use xlink:href="#m26aa0958ac" x="295.2" y="381.329254" style="fill-opacity: 0; stroke: #3f3f3f"/>
     <use xlink:href="#m26aa0958ac" x="295.2" y="406.932251" style="fill-opacity: 0; stroke: #3f3f3f"/>
     <use xlink:href="#m26aa0958ac" x="295.2" y="371.822702" style="fill-opacity: 0; stroke: #3f3f3f"/>
     <use xlink:href="#m26aa0958ac" x="295.2" y="366.859098" style="fill-opacity: 0; stroke: #3f3f3f"/>
     <use xlink:href="#m26aa0958ac" x="295.2" y="380.664414" style="fill-opacity: 0; stroke: #3f3f3f"/>
     <use xlink:href="#m26aa0958ac" x="295.2" y="427.390365" style="fill-opacity: 0; stroke: #3f3f3f"/>
     <use xlink:href="#m26aa0958ac" x="295.2" y="389.09021" style="fill-opacity: 0; stroke: #3f3f3f"/>
     <use xlink:href="#m26aa0958ac" x="295.2" y="381.011544" style="fill-opacity: 0; stroke: #3f3f3f"/>
     <use xlink:href="#m26aa0958ac" x="295.2" y="373.58256" style="fill-opacity: 0; stroke: #3f3f3f"/>
     <use xlink:href="#m26aa0958ac" x="295.2" y="366.648758" style="fill-opacity: 0; stroke: #3f3f3f"/>
     <use xlink:href="#m26aa0958ac" x="295.2" y="426.787673" style="fill-opacity: 0; stroke: #3f3f3f"/>
     <use xlink:href="#m26aa0958ac" x="295.2" y="382.053312" style="fill-opacity: 0; stroke: #3f3f3f"/>
     <use xlink:href="#m26aa0958ac" x="295.2" y="408.668021" style="fill-opacity: 0; stroke: #3f3f3f"/>
     <use xlink:href="#m26aa0958ac" x="295.2" y="371.311622" style="fill-opacity: 0; stroke: #3f3f3f"/>
     <use xlink:href="#m26aa0958ac" x="295.2" y="370.232633" style="fill-opacity: 0; stroke: #3f3f3f"/>
     <use xlink:href="#m26aa0958ac" x="295.2" y="377.668253" style="fill-opacity: 0; stroke: #3f3f3f"/>
     <use xlink:href="#m26aa0958ac" x="295.2" y="397.679868" style="fill-opacity: 0; stroke: #3f3f3f"/>
     <use xlink:href="#m26aa0958ac" x="295.2" y="406.894227" style="fill-opacity: 0; stroke: #3f3f3f"/>
     <use xlink:href="#m26aa0958ac" x="295.2" y="372.056054" style="fill-opacity: 0; stroke: #3f3f3f"/>
     <use xlink:href="#m26aa0958ac" x="295.2" y="399.324022" style="fill-opacity: 0; stroke: #3f3f3f"/>
     <use xlink:href="#m26aa0958ac" x="295.2" y="366.397907" style="fill-opacity: 0; stroke: #3f3f3f"/>
     <use xlink:href="#m26aa0958ac" x="295.2" y="427.567417" style="fill-opacity: 0; stroke: #3f3f3f"/>
     <use xlink:href="#m26aa0958ac" x="295.2" y="369.423731" style="fill-opacity: 0; stroke: #3f3f3f"/>
     <use xlink:href="#m26aa0958ac" x="295.2" y="372.042965" style="fill-opacity: 0; stroke: #3f3f3f"/>
     <use xlink:href="#m26aa0958ac" x="295.2" y="370.198041" style="fill-opacity: 0; stroke: #3f3f3f"/>
     <use xlink:href="#m26aa0958ac" x="295.2" y="366.71543" style="fill-opacity: 0; stroke: #3f3f3f"/>
     <use xlink:href="#m26aa0958ac" x="295.2" y="388.408229" style="fill-opacity: 0; stroke: #3f3f3f"/>
     <use xlink:href="#m26aa0958ac" x="295.2" y="397.679868" style="fill-opacity: 0; stroke: #3f3f3f"/>
     <use xlink:href="#m26aa0958ac" x="295.2" y="366.016719" style="fill-opacity: 0; stroke: #3f3f3f"/>
     <use xlink:href="#m26aa0958ac" x="295.2" y="386.502997" style="fill-opacity: 0; stroke: #3f3f3f"/>
     <use xlink:href="#m26aa0958ac" x="295.2" y="392.041365" style="fill-opacity: 0; stroke: #3f3f3f"/>
     <use xlink:href="#m26aa0958ac" x="295.2" y="419.287502" style="fill-opacity: 0; stroke: #3f3f3f"/>
     <use xlink:href="#m26aa0958ac" x="295.2" y="366.319912" style="fill-opacity: 0; stroke: #3f3f3f"/>
     <use xlink:href="#m26aa0958ac" x="295.2" y="370.795929" style="fill-opacity: 0; stroke: #3f3f3f"/>
     <use xlink:href="#m26aa0958ac" x="295.2" y="371.919789" style="fill-opacity: 0; stroke: #3f3f3f"/>
     <use xlink:href="#m26aa0958ac" x="295.2" y="384.404797" style="fill-opacity: 0; stroke: #3f3f3f"/>
     <use xlink:href="#m26aa0958ac" x="295.2" y="435.954162" style="fill-opacity: 0; stroke: #3f3f3f"/>
     <use xlink:href="#m26aa0958ac" x="295.2" y="389.900772" style="fill-opacity: 0; stroke: #3f3f3f"/>
     <use xlink:href="#m26aa0958ac" x="295.2" y="372.284697" style="fill-opacity: 0; stroke: #3f3f3f"/>
     <use xlink:href="#m26aa0958ac" x="295.2" y="367.27889" style="fill-opacity: 0; stroke: #3f3f3f"/>
     <use xlink:href="#m26aa0958ac" x="295.2" y="390.957894" style="fill-opacity: 0; stroke: #3f3f3f"/>
     <use xlink:href="#m26aa0958ac" x="295.2" y="387.733214" style="fill-opacity: 0; stroke: #3f3f3f"/>
     <use xlink:href="#m26aa0958ac" x="295.2" y="371.08986" style="fill-opacity: 0; stroke: #3f3f3f"/>
     <use xlink:href="#m26aa0958ac" x="295.2" y="370.483915" style="fill-opacity: 0; stroke: #3f3f3f"/>
     <use xlink:href="#m26aa0958ac" x="295.2" y="374.353445" style="fill-opacity: 0; stroke: #3f3f3f"/>
     <use xlink:href="#m26aa0958ac" x="295.2" y="366.397907" style="fill-opacity: 0; stroke: #3f3f3f"/>
     <use xlink:href="#m26aa0958ac" x="295.2" y="415.200428" style="fill-opacity: 0; stroke: #3f3f3f"/>
     <use xlink:href="#m26aa0958ac" x="295.2" y="377.603498" style="fill-opacity: 0; stroke: #3f3f3f"/>
     <use xlink:href="#m26aa0958ac" x="295.2" y="390.050663" style="fill-opacity: 0; stroke: #3f3f3f"/>
     <use xlink:href="#m26aa0958ac" x="295.2" y="98.119487" style="fill-opacity: 0; stroke: #3f3f3f"/>
     <use xlink:href="#m26aa0958ac" x="295.2" y="124.437686" style="fill-opacity: 0; stroke: #3f3f3f"/>
     <use xlink:href="#m26aa0958ac" x="295.2" y="131.151924" style="fill-opacity: 0; stroke: #3f3f3f"/>
     <use xlink:href="#m26aa0958ac" x="295.2" y="131.508448" style="fill-opacity: 0; stroke: #3f3f3f"/>
     <use xlink:href="#m26aa0958ac" x="295.2" y="126.990391" style="fill-opacity: 0; stroke: #3f3f3f"/>
     <use xlink:href="#m26aa0958ac" x="295.2" y="89.28" style="fill-opacity: 0; stroke: #3f3f3f"/>
     <use xlink:href="#m26aa0958ac" x="295.2" y="129.982753" style="fill-opacity: 0; stroke: #3f3f3f"/>
     <use xlink:href="#m26aa0958ac" x="295.2" y="129.05769" style="fill-opacity: 0; stroke: #3f3f3f"/>
     <use xlink:href="#m26aa0958ac" x="295.2" y="129.05769" style="fill-opacity: 0; stroke: #3f3f3f"/>
     <use xlink:href="#m26aa0958ac" x="295.2" y="128.087502" style="fill-opacity: 0; stroke: #3f3f3f"/>
     <use xlink:href="#m26aa0958ac" x="295.2" y="106.958973" style="fill-opacity: 0; stroke: #3f3f3f"/>
     <use xlink:href="#m26aa0958ac" x="295.2" y="97.803791" style="fill-opacity: 0; stroke: #3f3f3f"/>
     <use xlink:href="#m26aa0958ac" x="295.2" y="122.894949" style="fill-opacity: 0; stroke: #3f3f3f"/>
     <use xlink:href="#m26aa0958ac" x="295.2" y="125.345106" style="fill-opacity: 0; stroke: #3f3f3f"/>
     <use xlink:href="#m26aa0958ac" x="295.2" y="131.151253" style="fill-opacity: 0; stroke: #3f3f3f"/>
     <use xlink:href="#m26aa0958ac" x="295.2" y="114.238551" style="fill-opacity: 0; stroke: #3f3f3f"/>
     <use xlink:href="#m26aa0958ac" x="295.2" y="113.758578" style="fill-opacity: 0; stroke: #3f3f3f"/>
     <use xlink:href="#m26aa0958ac" x="295.2" y="115.79846" style="fill-opacity: 0; stroke: #3f3f3f"/>
     <use xlink:href="#m26aa0958ac" x="295.2" y="99.224423" style="fill-opacity: 0; stroke: #3f3f3f"/>
     <use xlink:href="#m26aa0958ac" x="295.2" y="127.550959" style="fill-opacity: 0; stroke: #3f3f3f"/>
     <use xlink:href="#m26aa0958ac" x="295.2" y="89.28" style="fill-opacity: 0; stroke: #3f3f3f"/>
     <use xlink:href="#m26aa0958ac" x="295.2" y="126.455411" style="fill-opacity: 0; stroke: #3f3f3f"/>
     <use xlink:href="#m26aa0958ac" x="295.2" y="103.744615" style="fill-opacity: 0; stroke: #3f3f3f"/>
     <use xlink:href="#m26aa0958ac" x="295.2" y="121.102152" style="fill-opacity: 0; stroke: #3f3f3f"/>
     <use xlink:href="#m26aa0958ac" x="295.2" y="129.561205" style="fill-opacity: 0; stroke: #3f3f3f"/>
     <use xlink:href="#m26aa0958ac" x="295.2" y="129.332019" style="fill-opacity: 0; stroke: #3f3f3f"/>
     <use xlink:href="#m26aa0958ac" x="295.2" y="129.05769" style="fill-opacity: 0; stroke: #3f3f3f"/>
     <use xlink:href="#m26aa0958ac" x="295.2" y="129.05769" style="fill-opacity: 0; stroke: #3f3f3f"/>
     <use xlink:href="#m26aa0958ac" x="295.2" y="131.766046" style="fill-opacity: 0; stroke: #3f3f3f"/>
     <use xlink:href="#m26aa0958ac" x="295.2" y="127.132076" style="fill-opacity: 0; stroke: #3f3f3f"/>
    </g>
   </g>
   <g id="line2d_13">
    <path d="M 116.64 248.116668 
L 473.76 248.116668 
" clip-path="url(#p0c7621570a)" style="fill: none; stroke: #3f3f3f"/>
   </g>
   <g id="patch_4">
    <path d="M 72 512.64 
L 72 69.12 
" style="fill: none; stroke: #000000; stroke-width: 0.8; stroke-linejoin: miter; stroke-linecap: square"/>
   </g>
   <g id="patch_5">
    <path d="M 518.4 512.64 
L 518.4 69.12 
" style="fill: none; stroke: #000000; stroke-width: 0.8; stroke-linejoin: miter; stroke-linecap: square"/>
   </g>
   <g id="patch_6">
    <path d="M 72 512.64 
L 518.4 512.64 
" style="fill: none; stroke: #000000; stroke-width: 0.8; stroke-linejoin: miter; stroke-linecap: square"/>
   </g>
   <g id="patch_7">
    <path d="M 72 69.12 
L 518.4 69.12 
" style="fill: none; stroke: #000000; stroke-width: 0.8; stroke-linejoin: miter; stroke-linecap: square"/>
   </g>
  </g>
 </g>
 <defs>
  <clipPath id="p0c7621570a">
   <rect x="72" y="69.12" width="446.4" height="443.52"/>
  </clipPath>
 </defs>
</svg>
