<?xml version="1.0" encoding="utf-8" standalone="no"?>
<!DOCTYPE svg PUBLIC "-//W3C//DTD SVG 1.1//EN"
  "http://www.w3.org/Graphics/SVG/1.1/DTD/svg11.dtd">
<svg xmlns:xlink="http://www.w3.org/1999/xlink" width="576pt" height="576pt" viewBox="0 0 576 576" xmlns="http://www.w3.org/2000/svg" version="1.1">
 <metadata>
  <rdf:RDF xmlns:dc="http://purl.org/dc/elements/1.1/" xmlns:cc="http://creativecommons.org/ns#" xmlns:rdf="http://www.w3.org/1999/02/22-rdf-syntax-ns#">
   <cc:Work>
    <dc:type rdf:resource="http://purl.org/dc/dcmitype/StillImage"/>
    <dc:date>2024-05-22T20:18:01.046186</dc:date>
    <dc:format>image/svg+xml</dc:format>
    <dc:creator>
     <cc:Agent>
      <dc:title>Matplotlib v3.8.0, https://matplotlib.org/</dc:title>
     </cc:Agent>
    </dc:creator>
   </cc:Work>
  </rdf:RDF>
 </metadata>
 <defs>
  <style type="text/css">*{stroke-linejoin: round; stroke-linecap: butt}</style>
 </defs>
 <g id="figure_1">
  <g id="patch_1">
   <path d="M 0 576 
L 576 576 
L 576 0 
L 0 0 
z
" style="fill: #ffffff"/>
  </g>
  <g id="axes_1">
   <g id="patch_2">
    <path d="M 72 512.64 
L 518.4 512.64 
L 518.4 69.12 
L 72 69.12 
z
" style="fill: #ffffff"/>
   </g>
   <g id="matplotlib.axis_1">
    <g id="xtick_1">
     <g id="line2d_1">
      <defs>
       <path id="ma68f6f1182" d="M 0 0 
L 0 3.5 
" style="stroke: #000000; stroke-width: 0.8"/>
      </defs>
      <g>
       <use xlink:href="#ma68f6f1182" x="295.2" y="512.64" style="stroke: #000000; stroke-width: 0.8"/>
      </g>
     </g>
    </g>
   </g>
   <g id="matplotlib.axis_2">
    <g id="ytick_1">
     <g id="line2d_2">
      <defs>
       <path id="m98d298466a" d="M 0 0 
L -3.5 0 
" style="stroke: #000000; stroke-width: 0.8"/>
      </defs>
      <g>
       <use xlink:href="#m98d298466a" x="72" y="492.48" style="stroke: #000000; stroke-width: 0.8"/>
      </g>
     </g>
     <g id="text_1">
      <!-- 0 -->
      <g transform="translate(58.6375 496.279219) scale(0.1 -0.1)">
       <defs>
        <path id="DejaVuSans-30" d="M 2034 4250 
Q 1547 4250 1301 3770 
Q 1056 3291 1056 2328 
Q 1056 1369 1301 889 
Q 1547 409 2034 409 
Q 2525 409 2770 889 
Q 3016 1369 3016 2328 
Q 3016 3291 2770 3770 
Q 2525 4250 2034 4250 
z
M 2034 4750 
Q 2819 4750 3233 4129 
Q 3647 3509 3647 2328 
Q 3647 1150 3233 529 
Q 2819 -91 2034 -91 
Q 1250 -91 836 529 
Q 422 1150 422 2328 
Q 422 3509 836 4129 
Q 1250 4750 2034 4750 
z
" transform="scale(0.015625)"/>
       </defs>
       <use xlink:href="#DejaVuSans-30"/>
      </g>
     </g>
    </g>
    <g id="ytick_2">
     <g id="line2d_3">
      <g>
       <use xlink:href="#m98d298466a" x="72" y="442.011868" style="stroke: #000000; stroke-width: 0.8"/>
      </g>
     </g>
     <g id="text_2">
      <!-- 25 -->
      <g transform="translate(52.275 445.811087) scale(0.1 -0.1)">
       <defs>
        <path id="DejaVuSans-32" d="M 1228 531 
L 3431 531 
L 3431 0 
L 469 0 
L 469 531 
Q 828 903 1448 1529 
Q 2069 2156 2228 2338 
Q 2531 2678 2651 2914 
Q 2772 3150 2772 3378 
Q 2772 3750 2511 3984 
Q 2250 4219 1831 4219 
Q 1534 4219 1204 4116 
Q 875 4013 500 3803 
L 500 4441 
Q 881 4594 1212 4672 
Q 1544 4750 1819 4750 
Q 2544 4750 2975 4387 
Q 3406 4025 3406 3419 
Q 3406 3131 3298 2873 
Q 3191 2616 2906 2266 
Q 2828 2175 2409 1742 
Q 1991 1309 1228 531 
z
" transform="scale(0.015625)"/>
        <path id="DejaVuSans-35" d="M 691 4666 
L 3169 4666 
L 3169 4134 
L 1269 4134 
L 1269 2991 
Q 1406 3038 1543 3061 
Q 1681 3084 1819 3084 
Q 2600 3084 3056 2656 
Q 3513 2228 3513 1497 
Q 3513 744 3044 326 
Q 2575 -91 1722 -91 
Q 1428 -91 1123 -41 
Q 819 9 494 109 
L 494 744 
Q 775 591 1075 516 
Q 1375 441 1709 441 
Q 2250 441 2565 725 
Q 2881 1009 2881 1497 
Q 2881 1984 2565 2268 
Q 2250 2553 1709 2553 
Q 1456 2553 1204 2497 
Q 953 2441 691 2322 
L 691 4666 
z
" transform="scale(0.015625)"/>
       </defs>
       <use xlink:href="#DejaVuSans-32"/>
       <use xlink:href="#DejaVuSans-35" x="63.623047"/>
      </g>
     </g>
    </g>
    <g id="ytick_3">
     <g id="line2d_4">
      <g>
       <use xlink:href="#m98d298466a" x="72" y="391.543736" style="stroke: #000000; stroke-width: 0.8"/>
      </g>
     </g>
     <g id="text_3">
      <!-- 50 -->
      <g transform="translate(52.275 395.342955) scale(0.1 -0.1)">
       <use xlink:href="#DejaVuSans-35"/>
       <use xlink:href="#DejaVuSans-30" x="63.623047"/>
      </g>
     </g>
    </g>
    <g id="ytick_4">
     <g id="line2d_5">
      <g>
       <use xlink:href="#m98d298466a" x="72" y="341.075604" style="stroke: #000000; stroke-width: 0.8"/>
      </g>
     </g>
     <g id="text_4">
      <!-- 75 -->
      <g transform="translate(52.275 344.874823) scale(0.1 -0.1)">
       <defs>
        <path id="DejaVuSans-37" d="M 525 4666 
L 3525 4666 
L 3525 4397 
L 1831 0 
L 1172 0 
L 2766 4134 
L 525 4134 
L 525 4666 
z
" transform="scale(0.015625)"/>
       </defs>
       <use xlink:href="#DejaVuSans-37"/>
       <use xlink:href="#DejaVuSans-35" x="63.623047"/>
      </g>
     </g>
    </g>
    <g id="ytick_5">
     <g id="line2d_6">
      <g>
       <use xlink:href="#m98d298466a" x="72" y="290.607472" style="stroke: #000000; stroke-width: 0.8"/>
      </g>
     </g>
     <g id="text_5">
      <!-- 100 -->
      <g transform="translate(45.9125 294.406691) scale(0.1 -0.1)">
       <defs>
        <path id="DejaVuSans-31" d="M 794 531 
L 1825 531 
L 1825 4091 
L 703 3866 
L 703 4441 
L 1819 4666 
L 2450 4666 
L 2450 531 
L 3481 531 
L 3481 0 
L 794 0 
L 794 531 
z
" transform="scale(0.015625)"/>
       </defs>
       <use xlink:href="#DejaVuSans-31"/>
       <use xlink:href="#DejaVuSans-30" x="63.623047"/>
       <use xlink:href="#DejaVuSans-30" x="127.246094"/>
      </g>
     </g>
    </g>
    <g id="ytick_6">
     <g id="line2d_7">
      <g>
       <use xlink:href="#m98d298466a" x="72" y="240.13934" style="stroke: #000000; stroke-width: 0.8"/>
      </g>
     </g>
     <g id="text_6">
      <!-- 125 -->
      <g transform="translate(45.9125 243.938559) scale(0.1 -0.1)">
       <use xlink:href="#DejaVuSans-31"/>
       <use xlink:href="#DejaVuSans-32" x="63.623047"/>
       <use xlink:href="#DejaVuSans-35" x="127.246094"/>
      </g>
     </g>
    </g>
    <g id="ytick_7">
     <g id="line2d_8">
      <g>
       <use xlink:href="#m98d298466a" x="72" y="189.671208" style="stroke: #000000; stroke-width: 0.8"/>
      </g>
     </g>
     <g id="text_7">
      <!-- 150 -->
      <g transform="translate(45.9125 193.470427) scale(0.1 -0.1)">
       <use xlink:href="#DejaVuSans-31"/>
       <use xlink:href="#DejaVuSans-35" x="63.623047"/>
       <use xlink:href="#DejaVuSans-30" x="127.246094"/>
      </g>
     </g>
    </g>
    <g id="ytick_8">
     <g id="line2d_9">
      <g>
       <use xlink:href="#m98d298466a" x="72" y="139.203076" style="stroke: #000000; stroke-width: 0.8"/>
      </g>
     </g>
     <g id="text_8">
      <!-- 175 -->
      <g transform="translate(45.9125 143.002295) scale(0.1 -0.1)">
       <use xlink:href="#DejaVuSans-31"/>
       <use xlink:href="#DejaVuSans-37" x="63.623047"/>
       <use xlink:href="#DejaVuSans-35" x="127.246094"/>
      </g>
     </g>
    </g>
    <g id="ytick_9">
     <g id="line2d_10">
      <g>
       <use xlink:href="#m98d298466a" x="72" y="88.734944" style="stroke: #000000; stroke-width: 0.8"/>
      </g>
     </g>
     <g id="text_9">
      <!-- 200 -->
      <g transform="translate(45.9125 92.534163) scale(0.1 -0.1)">
       <use xlink:href="#DejaVuSans-32"/>
       <use xlink:href="#DejaVuSans-30" x="63.623047"/>
       <use xlink:href="#DejaVuSans-30" x="127.246094"/>
      </g>
     </g>
    </g>
    <g id="text_10">
     <!-- price -->
     <g transform="translate(39.832812 303.324531) rotate(-90) scale(0.1 -0.1)">
      <defs>
       <path id="DejaVuSans-70" d="M 1159 525 
L 1159 -1331 
L 581 -1331 
L 581 3500 
L 1159 3500 
L 1159 2969 
Q 1341 3281 1617 3432 
Q 1894 3584 2278 3584 
Q 2916 3584 3314 3078 
Q 3713 2572 3713 1747 
Q 3713 922 3314 415 
Q 2916 -91 2278 -91 
Q 1894 -91 1617 61 
Q 1341 213 1159 525 
z
M 3116 1747 
Q 3116 2381 2855 2742 
Q 2594 3103 2138 3103 
Q 1681 3103 1420 2742 
Q 1159 2381 1159 1747 
Q 1159 1113 1420 752 
Q 1681 391 2138 391 
Q 2594 391 2855 752 
Q 3116 1113 3116 1747 
z
" transform="scale(0.015625)"/>
       <path id="DejaVuSans-72" d="M 2631 2963 
Q 2534 3019 2420 3045 
Q 2306 3072 2169 3072 
Q 1681 3072 1420 2755 
Q 1159 2438 1159 1844 
L 1159 0 
L 581 0 
L 581 3500 
L 1159 3500 
L 1159 2956 
Q 1341 3275 1631 3429 
Q 1922 3584 2338 3584 
Q 2397 3584 2469 3576 
Q 2541 3569 2628 3553 
L 2631 2963 
z
" transform="scale(0.015625)"/>
       <path id="DejaVuSans-69" d="M 603 3500 
L 1178 3500 
L 1178 0 
L 603 0 
L 603 3500 
z
M 603 4863 
L 1178 4863 
L 1178 4134 
L 603 4134 
L 603 4863 
z
" transform="scale(0.015625)"/>
       <path id="DejaVuSans-63" d="M 3122 3366 
L 3122 2828 
Q 2878 2963 2633 3030 
Q 2388 3097 2138 3097 
Q 1578 3097 1268 2742 
Q 959 2388 959 1747 
Q 959 1106 1268 751 
Q 1578 397 2138 397 
Q 2388 397 2633 464 
Q 2878 531 3122 666 
L 3122 134 
Q 2881 22 2623 -34 
Q 2366 -91 2075 -91 
Q 1284 -91 818 406 
Q 353 903 353 1747 
Q 353 2603 823 3093 
Q 1294 3584 2113 3584 
Q 2378 3584 2631 3529 
Q 2884 3475 3122 3366 
z
" transform="scale(0.015625)"/>
       <path id="DejaVuSans-65" d="M 3597 1894 
L 3597 1613 
L 953 1613 
Q 991 1019 1311 708 
Q 1631 397 2203 397 
Q 2534 397 2845 478 
Q 3156 559 3463 722 
L 3463 178 
Q 3153 47 2828 -22 
Q 2503 -91 2169 -91 
Q 1331 -91 842 396 
Q 353 884 353 1716 
Q 353 2575 817 3079 
Q 1281 3584 2069 3584 
Q 2775 3584 3186 3129 
Q 3597 2675 3597 1894 
z
M 3022 2063 
Q 3016 2534 2758 2815 
Q 2500 3097 2075 3097 
Q 1594 3097 1305 2825 
Q 1016 2553 972 2059 
L 3022 2063 
z
" transform="scale(0.015625)"/>
      </defs>
      <use xlink:href="#DejaVuSans-70"/>
      <use xlink:href="#DejaVuSans-72" x="63.476562"/>
      <use xlink:href="#DejaVuSans-69" x="104.589844"/>
      <use xlink:href="#DejaVuSans-63" x="132.373047"/>
      <use xlink:href="#DejaVuSans-65" x="187.353516"/>
     </g>
    </g>
   </g>
   <g id="patch_3">
    <path d="M 116.64 486.444011 
L 473.76 486.444011 
L 473.76 469.108208 
L 116.64 469.108208 
L 116.64 486.444011 
z
" clip-path="url(#pc371a1e3ea)" style="fill: #3274a1; stroke: #3f3f3f; stroke-linejoin: miter"/>
   </g>
   <g id="line2d_11">
    <path d="M 295.2 486.444011 
L 295.2 492.48 
" clip-path="url(#pc371a1e3ea)" style="fill: none; stroke: #3f3f3f"/>
   </g>
   <g id="line2d_12">
    <path d="M 295.2 469.108208 
L 295.2 444.030593 
" clip-path="url(#pc371a1e3ea)" style="fill: none; stroke: #3f3f3f"/>
   </g>
   <g id="line2d_13">
    <path d="M 205.92 492.48 
L 384.48 492.48 
" clip-path="url(#pc371a1e3ea)" style="fill: none; stroke: #3f3f3f; stroke-linecap: square"/>
   </g>
   <g id="line2d_14">
    <path d="M 205.92 444.030593 
L 384.48 444.030593 
" clip-path="url(#pc371a1e3ea)" style="fill: none; stroke: #3f3f3f; stroke-linecap: square"/>
   </g>
   <g id="line2d_15">
    <defs>
     <path id="m4bb3b5c0db" d="M 0 3 
C 0.795609 3 1.55874 2.683901 2.12132 2.12132 
C 2.683901 1.55874 3 0.795609 3 0 
C 3 -0.795609 2.683901 -1.55874 2.12132 -2.12132 
C 1.55874 -2.683901 0.795609 -3 0 -3 
C -0.795609 -3 -1.55874 -2.683901 -2.12132 -2.12132 
C -2.683901 -1.55874 -3 -0.795609 -3 0 
C -3 0.795609 -2.683901 1.55874 -2.12132 2.12132 
C -1.55874 2.683901 -0.795609 3 0 3 
z
" style="stroke: #3f3f3f"/>
    </defs>
    <g clip-path="url(#pc371a1e3ea)">
     <use xlink:href="#m4bb3b5c0db" x="295.2" y="422.89454" style="fill-opacity: 0; stroke: #3f3f3f"/>
     <use xlink:href="#m4bb3b5c0db" x="295.2" y="436.056628" style="fill-opacity: 0; stroke: #3f3f3f"/>
     <use xlink:href="#m4bb3b5c0db" x="295.2" y="435.067453" style="fill-opacity: 0; stroke: #3f3f3f"/>
     <use xlink:href="#m4bb3b5c0db" x="295.2" y="440.01333" style="fill-opacity: 0; stroke: #3f3f3f"/>
     <use xlink:href="#m4bb3b5c0db" x="295.2" y="435.047266" style="fill-opacity: 0; stroke: #3f3f3f"/>
     <use xlink:href="#m4bb3b5c0db" x="295.2" y="434.643521" style="fill-opacity: 0; stroke: #3f3f3f"/>
     <use xlink:href="#m4bb3b5c0db" x="295.2" y="419.543456" style="fill-opacity: 0; stroke: #3f3f3f"/>
     <use xlink:href="#m4bb3b5c0db" x="295.2" y="351.189418" style="fill-opacity: 0; stroke: #3f3f3f"/>
     <use xlink:href="#m4bb3b5c0db" x="295.2" y="411.751176" style="fill-opacity: 0; stroke: #3f3f3f"/>
     <use xlink:href="#m4bb3b5c0db" x="295.2" y="387.526473" style="fill-opacity: 0; stroke: #3f3f3f"/>
     <use xlink:href="#m4bb3b5c0db" x="295.2" y="442.011868" style="fill-opacity: 0; stroke: #3f3f3f"/>
     <use xlink:href="#m4bb3b5c0db" x="295.2" y="425.983189" style="fill-opacity: 0; stroke: #3f3f3f"/>
     <use xlink:href="#m4bb3b5c0db" x="295.2" y="437.994605" style="fill-opacity: 0; stroke: #3f3f3f"/>
     <use xlink:href="#m4bb3b5c0db" x="295.2" y="423.520344" style="fill-opacity: 0; stroke: #3f3f3f"/>
     <use xlink:href="#m4bb3b5c0db" x="295.2" y="411.953049" style="fill-opacity: 0; stroke: #3f3f3f"/>
     <use xlink:href="#m4bb3b5c0db" x="295.2" y="431.938429" style="fill-opacity: 0; stroke: #3f3f3f"/>
     <use xlink:href="#m4bb3b5c0db" x="295.2" y="371.376671" style="fill-opacity: 0; stroke: #3f3f3f"/>
     <use xlink:href="#m4bb3b5c0db" x="295.2" y="441.022693" style="fill-opacity: 0; stroke: #3f3f3f"/>
     <use xlink:href="#m4bb3b5c0db" x="295.2" y="365.320495" style="fill-opacity: 0; stroke: #3f3f3f"/>
     <use xlink:href="#m4bb3b5c0db" x="295.2" y="428.506596" style="fill-opacity: 0; stroke: #3f3f3f"/>
     <use xlink:href="#m4bb3b5c0db" x="295.2" y="89.28" style="fill-opacity: 0; stroke: #3f3f3f"/>
     <use xlink:href="#m4bb3b5c0db" x="295.2" y="392.754971" style="fill-opacity: 0; stroke: #3f3f3f"/>
     <use xlink:href="#m4bb3b5c0db" x="295.2" y="440.01333" style="fill-opacity: 0; stroke: #3f3f3f"/>
     <use xlink:href="#m4bb3b5c0db" x="295.2" y="438.882844" style="fill-opacity: 0; stroke: #3f3f3f"/>
     <use xlink:href="#m4bb3b5c0db" x="295.2" y="442.032055" style="fill-opacity: 0; stroke: #3f3f3f"/>
     <use xlink:href="#m4bb3b5c0db" x="295.2" y="436.278688" style="fill-opacity: 0; stroke: #3f3f3f"/>
     <use xlink:href="#m4bb3b5c0db" x="295.2" y="377.432846" style="fill-opacity: 0; stroke: #3f3f3f"/>
     <use xlink:href="#m4bb3b5c0db" x="295.2" y="423.439595" style="fill-opacity: 0; stroke: #3f3f3f"/>
     <use xlink:href="#m4bb3b5c0db" x="295.2" y="431.110752" style="fill-opacity: 0; stroke: #3f3f3f"/>
     <use xlink:href="#m4bb3b5c0db" x="295.2" y="442.112804" style="fill-opacity: 0; stroke: #3f3f3f"/>
     <use xlink:href="#m4bb3b5c0db" x="295.2" y="429.838955" style="fill-opacity: 0; stroke: #3f3f3f"/>
     <use xlink:href="#m4bb3b5c0db" x="295.2" y="427.880791" style="fill-opacity: 0; stroke: #3f3f3f"/>
     <use xlink:href="#m4bb3b5c0db" x="295.2" y="414.436081" style="fill-opacity: 0; stroke: #3f3f3f"/>
     <use xlink:href="#m4bb3b5c0db" x="295.2" y="442.112804" style="fill-opacity: 0; stroke: #3f3f3f"/>
     <use xlink:href="#m4bb3b5c0db" x="295.2" y="415.788627" style="fill-opacity: 0; stroke: #3f3f3f"/>
     <use xlink:href="#m4bb3b5c0db" x="295.2" y="442.032055" style="fill-opacity: 0; stroke: #3f3f3f"/>
     <use xlink:href="#m4bb3b5c0db" x="295.2" y="429.717831" style="fill-opacity: 0; stroke: #3f3f3f"/>
     <use xlink:href="#m4bb3b5c0db" x="295.2" y="393.582649" style="fill-opacity: 0; stroke: #3f3f3f"/>
     <use xlink:href="#m4bb3b5c0db" x="295.2" y="437.651421" style="fill-opacity: 0; stroke: #3f3f3f"/>
     <use xlink:href="#m4bb3b5c0db" x="295.2" y="412.376981" style="fill-opacity: 0; stroke: #3f3f3f"/>
     <use xlink:href="#m4bb3b5c0db" x="295.2" y="439.993143" style="fill-opacity: 0; stroke: #3f3f3f"/>
     <use xlink:href="#m4bb3b5c0db" x="295.2" y="439.003967" style="fill-opacity: 0; stroke: #3f3f3f"/>
     <use xlink:href="#m4bb3b5c0db" x="295.2" y="442.032055" style="fill-opacity: 0; stroke: #3f3f3f"/>
     <use xlink:href="#m4bb3b5c0db" x="295.2" y="436.056628" style="fill-opacity: 0; stroke: #3f3f3f"/>
     <use xlink:href="#m4bb3b5c0db" x="295.2" y="417.706416" style="fill-opacity: 0; stroke: #3f3f3f"/>
     <use xlink:href="#m4bb3b5c0db" x="295.2" y="442.011868" style="fill-opacity: 0; stroke: #3f3f3f"/>
     <use xlink:href="#m4bb3b5c0db" x="295.2" y="379.330448" style="fill-opacity: 0; stroke: #3f3f3f"/>
     <use xlink:href="#m4bb3b5c0db" x="295.2" y="435.955692" style="fill-opacity: 0; stroke: #3f3f3f"/>
     <use xlink:href="#m4bb3b5c0db" x="295.2" y="435.975879" style="fill-opacity: 0; stroke: #3f3f3f"/>
     <use xlink:href="#m4bb3b5c0db" x="295.2" y="435.975879" style="fill-opacity: 0; stroke: #3f3f3f"/>
     <use xlink:href="#m4bb3b5c0db" x="295.2" y="325.45067" style="fill-opacity: 0; stroke: #3f3f3f"/>
     <use xlink:href="#m4bb3b5c0db" x="295.2" y="442.032055" style="fill-opacity: 0; stroke: #3f3f3f"/>
     <use xlink:href="#m4bb3b5c0db" x="295.2" y="415.869376" style="fill-opacity: 0; stroke: #3f3f3f"/>
     <use xlink:href="#m4bb3b5c0db" x="295.2" y="419.826077" style="fill-opacity: 0; stroke: #3f3f3f"/>
     <use xlink:href="#m4bb3b5c0db" x="295.2" y="419.826077" style="fill-opacity: 0; stroke: #3f3f3f"/>
     <use xlink:href="#m4bb3b5c0db" x="295.2" y="421.844802" style="fill-opacity: 0; stroke: #3f3f3f"/>
     <use xlink:href="#m4bb3b5c0db" x="295.2" y="442.011868" style="fill-opacity: 0; stroke: #3f3f3f"/>
     <use xlink:href="#m4bb3b5c0db" x="295.2" y="423.419408" style="fill-opacity: 0; stroke: #3f3f3f"/>
     <use xlink:href="#m4bb3b5c0db" x="295.2" y="403.676275" style="fill-opacity: 0; stroke: #3f3f3f"/>
     <use xlink:href="#m4bb3b5c0db" x="295.2" y="442.637673" style="fill-opacity: 0; stroke: #3f3f3f"/>
     <use xlink:href="#m4bb3b5c0db" x="295.2" y="431.918242" style="fill-opacity: 0; stroke: #3f3f3f"/>
     <use xlink:href="#m4bb3b5c0db" x="295.2" y="431.938429" style="fill-opacity: 0; stroke: #3f3f3f"/>
     <use xlink:href="#m4bb3b5c0db" x="295.2" y="429.515959" style="fill-opacity: 0; stroke: #3f3f3f"/>
     <use xlink:href="#m4bb3b5c0db" x="295.2" y="428.910341" style="fill-opacity: 0; stroke: #3f3f3f"/>
     <use xlink:href="#m4bb3b5c0db" x="295.2" y="287.599571" style="fill-opacity: 0; stroke: #3f3f3f"/>
     <use xlink:href="#m4bb3b5c0db" x="295.2" y="417.787165" style="fill-opacity: 0; stroke: #3f3f3f"/>
     <use xlink:href="#m4bb3b5c0db" x="295.2" y="441.022693" style="fill-opacity: 0; stroke: #3f3f3f"/>
     <use xlink:href="#m4bb3b5c0db" x="295.2" y="391.563923" style="fill-opacity: 0; stroke: #3f3f3f"/>
     <use xlink:href="#m4bb3b5c0db" x="295.2" y="427.880791" style="fill-opacity: 0; stroke: #3f3f3f"/>
     <use xlink:href="#m4bb3b5c0db" x="295.2" y="436.965055" style="fill-opacity: 0; stroke: #3f3f3f"/>
     <use xlink:href="#m4bb3b5c0db" x="295.2" y="396.590549" style="fill-opacity: 0; stroke: #3f3f3f"/>
     <use xlink:href="#m4bb3b5c0db" x="295.2" y="431.110752" style="fill-opacity: 0; stroke: #3f3f3f"/>
     <use xlink:href="#m4bb3b5c0db" x="295.2" y="427.900978" style="fill-opacity: 0; stroke: #3f3f3f"/>
     <use xlink:href="#m4bb3b5c0db" x="295.2" y="274.45767" style="fill-opacity: 0; stroke: #3f3f3f"/>
     <use xlink:href="#m4bb3b5c0db" x="295.2" y="436.985242" style="fill-opacity: 0; stroke: #3f3f3f"/>
     <use xlink:href="#m4bb3b5c0db" x="295.2" y="421.622743" style="fill-opacity: 0; stroke: #3f3f3f"/>
     <use xlink:href="#m4bb3b5c0db" x="295.2" y="442.112804" style="fill-opacity: 0; stroke: #3f3f3f"/>
     <use xlink:href="#m4bb3b5c0db" x="295.2" y="442.032055" style="fill-opacity: 0; stroke: #3f3f3f"/>
     <use xlink:href="#m4bb3b5c0db" x="295.2" y="431.938429" style="fill-opacity: 0; stroke: #3f3f3f"/>
     <use xlink:href="#m4bb3b5c0db" x="295.2" y="405.695" style="fill-opacity: 0; stroke: #3f3f3f"/>
     <use xlink:href="#m4bb3b5c0db" x="295.2" y="433.210226" style="fill-opacity: 0; stroke: #3f3f3f"/>
     <use xlink:href="#m4bb3b5c0db" x="295.2" y="435.955692" style="fill-opacity: 0; stroke: #3f3f3f"/>
     <use xlink:href="#m4bb3b5c0db" x="295.2" y="442.032055" style="fill-opacity: 0; stroke: #3f3f3f"/>
     <use xlink:href="#m4bb3b5c0db" x="295.2" y="416.797989" style="fill-opacity: 0; stroke: #3f3f3f"/>
     <use xlink:href="#m4bb3b5c0db" x="295.2" y="377.412659" style="fill-opacity: 0; stroke: #3f3f3f"/>
     <use xlink:href="#m4bb3b5c0db" x="295.2" y="442.032055" style="fill-opacity: 0; stroke: #3f3f3f"/>
     <use xlink:href="#m4bb3b5c0db" x="295.2" y="431.938429" style="fill-opacity: 0; stroke: #3f3f3f"/>
     <use xlink:href="#m4bb3b5c0db" x="295.2" y="435.975879" style="fill-opacity: 0; stroke: #3f3f3f"/>
     <use xlink:href="#m4bb3b5c0db" x="295.2" y="440.01333" style="fill-opacity: 0; stroke: #3f3f3f"/>
     <use xlink:href="#m4bb3b5c0db" x="295.2" y="433.957154" style="fill-opacity: 0; stroke: #3f3f3f"/>
     <use xlink:href="#m4bb3b5c0db" x="295.2" y="429.899516" style="fill-opacity: 0; stroke: #3f3f3f"/>
     <use xlink:href="#m4bb3b5c0db" x="295.2" y="338.511823" style="fill-opacity: 0; stroke: #3f3f3f"/>
     <use xlink:href="#m4bb3b5c0db" x="295.2" y="331.002165" style="fill-opacity: 0; stroke: #3f3f3f"/>
     <use xlink:href="#m4bb3b5c0db" x="295.2" y="442.011868" style="fill-opacity: 0; stroke: #3f3f3f"/>
     <use xlink:href="#m4bb3b5c0db" x="295.2" y="442.839545" style="fill-opacity: 0; stroke: #3f3f3f"/>
     <use xlink:href="#m4bb3b5c0db" x="295.2" y="421.562181" style="fill-opacity: 0; stroke: #3f3f3f"/>
     <use xlink:href="#m4bb3b5c0db" x="295.2" y="435.975879" style="fill-opacity: 0; stroke: #3f3f3f"/>
     <use xlink:href="#m4bb3b5c0db" x="295.2" y="367.92465" style="fill-opacity: 0; stroke: #3f3f3f"/>
     <use xlink:href="#m4bb3b5c0db" x="295.2" y="433.957154" style="fill-opacity: 0; stroke: #3f3f3f"/>
     <use xlink:href="#m4bb3b5c0db" x="295.2" y="439.993143" style="fill-opacity: 0; stroke: #3f3f3f"/>
     <use xlink:href="#m4bb3b5c0db" x="295.2" y="393.582649" style="fill-opacity: 0; stroke: #3f3f3f"/>
     <use xlink:href="#m4bb3b5c0db" x="295.2" y="429.738018" style="fill-opacity: 0; stroke: #3f3f3f"/>
     <use xlink:href="#m4bb3b5c0db" x="295.2" y="435.975879" style="fill-opacity: 0; stroke: #3f3f3f"/>
     <use xlink:href="#m4bb3b5c0db" x="295.2" y="339.036692" style="fill-opacity: 0; stroke: #3f3f3f"/>
     <use xlink:href="#m4bb3b5c0db" x="295.2" y="442.011868" style="fill-opacity: 0; stroke: #3f3f3f"/>
     <use xlink:href="#m4bb3b5c0db" x="295.2" y="411.367618" style="fill-opacity: 0; stroke: #3f3f3f"/>
     <use xlink:href="#m4bb3b5c0db" x="295.2" y="425.882253" style="fill-opacity: 0; stroke: #3f3f3f"/>
     <use xlink:href="#m4bb3b5c0db" x="295.2" y="428.910341" style="fill-opacity: 0; stroke: #3f3f3f"/>
     <use xlink:href="#m4bb3b5c0db" x="295.2" y="427.37611" style="fill-opacity: 0; stroke: #3f3f3f"/>
     <use xlink:href="#m4bb3b5c0db" x="295.2" y="404.685638" style="fill-opacity: 0; stroke: #3f3f3f"/>
     <use xlink:href="#m4bb3b5c0db" x="295.2" y="408.844212" style="fill-opacity: 0; stroke: #3f3f3f"/>
     <use xlink:href="#m4bb3b5c0db" x="295.2" y="437.994605" style="fill-opacity: 0; stroke: #3f3f3f"/>
     <use xlink:href="#m4bb3b5c0db" x="295.2" y="431.938429" style="fill-opacity: 0; stroke: #3f3f3f"/>
     <use xlink:href="#m4bb3b5c0db" x="295.2" y="312.81345" style="fill-opacity: 0; stroke: #3f3f3f"/>
     <use xlink:href="#m4bb3b5c0db" x="295.2" y="379.229512" style="fill-opacity: 0; stroke: #3f3f3f"/>
     <use xlink:href="#m4bb3b5c0db" x="295.2" y="390.453624" style="fill-opacity: 0; stroke: #3f3f3f"/>
     <use xlink:href="#m4bb3b5c0db" x="295.2" y="425.963002" style="fill-opacity: 0; stroke: #3f3f3f"/>
     <use xlink:href="#m4bb3b5c0db" x="295.2" y="395.601374" style="fill-opacity: 0; stroke: #3f3f3f"/>
     <use xlink:href="#m4bb3b5c0db" x="295.2" y="361.283044" style="fill-opacity: 0; stroke: #3f3f3f"/>
     <use xlink:href="#m4bb3b5c0db" x="295.2" y="428.910341" style="fill-opacity: 0; stroke: #3f3f3f"/>
     <use xlink:href="#m4bb3b5c0db" x="295.2" y="440.01333" style="fill-opacity: 0; stroke: #3f3f3f"/>
     <use xlink:href="#m4bb3b5c0db" x="295.2" y="429.919704" style="fill-opacity: 0; stroke: #3f3f3f"/>
     <use xlink:href="#m4bb3b5c0db" x="295.2" y="442.112804" style="fill-opacity: 0; stroke: #3f3f3f"/>
     <use xlink:href="#m4bb3b5c0db" x="295.2" y="398.609275" style="fill-opacity: 0; stroke: #3f3f3f"/>
     <use xlink:href="#m4bb3b5c0db" x="295.2" y="437.994605" style="fill-opacity: 0; stroke: #3f3f3f"/>
     <use xlink:href="#m4bb3b5c0db" x="295.2" y="441.022693" style="fill-opacity: 0; stroke: #3f3f3f"/>
     <use xlink:href="#m4bb3b5c0db" x="295.2" y="407.693538" style="fill-opacity: 0; stroke: #3f3f3f"/>
     <use xlink:href="#m4bb3b5c0db" x="295.2" y="421.541994" style="fill-opacity: 0; stroke: #3f3f3f"/>
     <use xlink:href="#m4bb3b5c0db" x="295.2" y="417.686228" style="fill-opacity: 0; stroke: #3f3f3f"/>
     <use xlink:href="#m4bb3b5c0db" x="295.2" y="310.794725" style="fill-opacity: 0; stroke: #3f3f3f"/>
     <use xlink:href="#m4bb3b5c0db" x="295.2" y="425.357384" style="fill-opacity: 0; stroke: #3f3f3f"/>
     <use xlink:href="#m4bb3b5c0db" x="295.2" y="438.882844" style="fill-opacity: 0; stroke: #3f3f3f"/>
     <use xlink:href="#m4bb3b5c0db" x="295.2" y="385.144377" style="fill-opacity: 0; stroke: #3f3f3f"/>
     <use xlink:href="#m4bb3b5c0db" x="295.2" y="421.541994" style="fill-opacity: 0; stroke: #3f3f3f"/>
     <use xlink:href="#m4bb3b5c0db" x="295.2" y="387.10254" style="fill-opacity: 0; stroke: #3f3f3f"/>
     <use xlink:href="#m4bb3b5c0db" x="295.2" y="440.01333" style="fill-opacity: 0; stroke: #3f3f3f"/>
     <use xlink:href="#m4bb3b5c0db" x="295.2" y="385.588496" style="fill-opacity: 0; stroke: #3f3f3f"/>
     <use xlink:href="#m4bb3b5c0db" x="295.2" y="381.470297" style="fill-opacity: 0; stroke: #3f3f3f"/>
     <use xlink:href="#m4bb3b5c0db" x="295.2" y="406.260243" style="fill-opacity: 0; stroke: #3f3f3f"/>
     <use xlink:href="#m4bb3b5c0db" x="295.2" y="428.446034" style="fill-opacity: 0; stroke: #3f3f3f"/>
     <use xlink:href="#m4bb3b5c0db" x="295.2" y="298.70256" style="fill-opacity: 0; stroke: #3f3f3f"/>
     <use xlink:href="#m4bb3b5c0db" x="295.2" y="158.401154" style="fill-opacity: 0; stroke: #3f3f3f"/>
     <use xlink:href="#m4bb3b5c0db" x="295.2" y="438.075354" style="fill-opacity: 0; stroke: #3f3f3f"/>
     <use xlink:href="#m4bb3b5c0db" x="295.2" y="412.8211" style="fill-opacity: 0; stroke: #3f3f3f"/>
     <use xlink:href="#m4bb3b5c0db" x="295.2" y="310.814912" style="fill-opacity: 0; stroke: #3f3f3f"/>
     <use xlink:href="#m4bb3b5c0db" x="295.2" y="431.918242" style="fill-opacity: 0; stroke: #3f3f3f"/>
     <use xlink:href="#m4bb3b5c0db" x="295.2" y="385.790369" style="fill-opacity: 0; stroke: #3f3f3f"/>
     <use xlink:href="#m4bb3b5c0db" x="295.2" y="438.055166" style="fill-opacity: 0; stroke: #3f3f3f"/>
     <use xlink:href="#m4bb3b5c0db" x="295.2" y="442.032055" style="fill-opacity: 0; stroke: #3f3f3f"/>
     <use xlink:href="#m4bb3b5c0db" x="295.2" y="421.844802" style="fill-opacity: 0; stroke: #3f3f3f"/>
     <use xlink:href="#m4bb3b5c0db" x="295.2" y="371.780416" style="fill-opacity: 0; stroke: #3f3f3f"/>
     <use xlink:href="#m4bb3b5c0db" x="295.2" y="411.751176" style="fill-opacity: 0; stroke: #3f3f3f"/>
     <use xlink:href="#m4bb3b5c0db" x="295.2" y="336.048978" style="fill-opacity: 0; stroke: #3f3f3f"/>
     <use xlink:href="#m4bb3b5c0db" x="295.2" y="442.112804" style="fill-opacity: 0; stroke: #3f3f3f"/>
     <use xlink:href="#m4bb3b5c0db" x="295.2" y="442.112804" style="fill-opacity: 0; stroke: #3f3f3f"/>
     <use xlink:href="#m4bb3b5c0db" x="295.2" y="399.860884" style="fill-opacity: 0; stroke: #3f3f3f"/>
     <use xlink:href="#m4bb3b5c0db" x="295.2" y="442.032055" style="fill-opacity: 0; stroke: #3f3f3f"/>
     <use xlink:href="#m4bb3b5c0db" x="295.2" y="440.094079" style="fill-opacity: 0; stroke: #3f3f3f"/>
     <use xlink:href="#m4bb3b5c0db" x="295.2" y="379.451572" style="fill-opacity: 0; stroke: #3f3f3f"/>
     <use xlink:href="#m4bb3b5c0db" x="295.2" y="413.749714" style="fill-opacity: 0; stroke: #3f3f3f"/>
     <use xlink:href="#m4bb3b5c0db" x="295.2" y="434.966517" style="fill-opacity: 0; stroke: #3f3f3f"/>
     <use xlink:href="#m4bb3b5c0db" x="295.2" y="442.65786" style="fill-opacity: 0; stroke: #3f3f3f"/>
     <use xlink:href="#m4bb3b5c0db" x="295.2" y="431.938429" style="fill-opacity: 0; stroke: #3f3f3f"/>
     <use xlink:href="#m4bb3b5c0db" x="295.2" y="432.988166" style="fill-opacity: 0; stroke: #3f3f3f"/>
     <use xlink:href="#m4bb3b5c0db" x="295.2" y="401.65755" style="fill-opacity: 0; stroke: #3f3f3f"/>
     <use xlink:href="#m4bb3b5c0db" x="295.2" y="442.032055" style="fill-opacity: 0; stroke: #3f3f3f"/>
     <use xlink:href="#m4bb3b5c0db" x="295.2" y="331.002165" style="fill-opacity: 0; stroke: #3f3f3f"/>
     <use xlink:href="#m4bb3b5c0db" x="295.2" y="391.644672" style="fill-opacity: 0; stroke: #3f3f3f"/>
     <use xlink:href="#m4bb3b5c0db" x="295.2" y="398.831334" style="fill-opacity: 0; stroke: #3f3f3f"/>
     <use xlink:href="#m4bb3b5c0db" x="295.2" y="421.844802" style="fill-opacity: 0; stroke: #3f3f3f"/>
     <use xlink:href="#m4bb3b5c0db" x="295.2" y="407.713726" style="fill-opacity: 0; stroke: #3f3f3f"/>
     <use xlink:href="#m4bb3b5c0db" x="295.2" y="399.356203" style="fill-opacity: 0; stroke: #3f3f3f"/>
     <use xlink:href="#m4bb3b5c0db" x="295.2" y="442.112804" style="fill-opacity: 0; stroke: #3f3f3f"/>
     <use xlink:href="#m4bb3b5c0db" x="295.2" y="437.166927" style="fill-opacity: 0; stroke: #3f3f3f"/>
     <use xlink:href="#m4bb3b5c0db" x="295.2" y="384.498385" style="fill-opacity: 0; stroke: #3f3f3f"/>
     <use xlink:href="#m4bb3b5c0db" x="295.2" y="172.552418" style="fill-opacity: 0; stroke: #3f3f3f"/>
     <use xlink:href="#m4bb3b5c0db" x="295.2" y="435.975879" style="fill-opacity: 0; stroke: #3f3f3f"/>
     <use xlink:href="#m4bb3b5c0db" x="295.2" y="419.826077" style="fill-opacity: 0; stroke: #3f3f3f"/>
     <use xlink:href="#m4bb3b5c0db" x="295.2" y="439.003967" style="fill-opacity: 0; stroke: #3f3f3f"/>
     <use xlink:href="#m4bb3b5c0db" x="295.2" y="442.112804" style="fill-opacity: 0; stroke: #3f3f3f"/>
     <use xlink:href="#m4bb3b5c0db" x="295.2" y="393.663398" style="fill-opacity: 0; stroke: #3f3f3f"/>
     <use xlink:href="#m4bb3b5c0db" x="295.2" y="442.032055" style="fill-opacity: 0; stroke: #3f3f3f"/>
     <use xlink:href="#m4bb3b5c0db" x="295.2" y="331.002165" style="fill-opacity: 0; stroke: #3f3f3f"/>
     <use xlink:href="#m4bb3b5c0db" x="295.2" y="421.521806" style="fill-opacity: 0; stroke: #3f3f3f"/>
     <use xlink:href="#m4bb3b5c0db" x="295.2" y="378.442209" style="fill-opacity: 0; stroke: #3f3f3f"/>
     <use xlink:href="#m4bb3b5c0db" x="295.2" y="411.569491" style="fill-opacity: 0; stroke: #3f3f3f"/>
     <use xlink:href="#m4bb3b5c0db" x="295.2" y="440.01333" style="fill-opacity: 0; stroke: #3f3f3f"/>
     <use xlink:href="#m4bb3b5c0db" x="295.2" y="438.802095" style="fill-opacity: 0; stroke: #3f3f3f"/>
     <use xlink:href="#m4bb3b5c0db" x="295.2" y="400.971183" style="fill-opacity: 0; stroke: #3f3f3f"/>
     <use xlink:href="#m4bb3b5c0db" x="295.2" y="431.938429" style="fill-opacity: 0; stroke: #3f3f3f"/>
     <use xlink:href="#m4bb3b5c0db" x="295.2" y="411.811738" style="fill-opacity: 0; stroke: #3f3f3f"/>
     <use xlink:href="#m4bb3b5c0db" x="295.2" y="411.751176" style="fill-opacity: 0; stroke: #3f3f3f"/>
     <use xlink:href="#m4bb3b5c0db" x="295.2" y="367.319033" style="fill-opacity: 0; stroke: #3f3f3f"/>
     <use xlink:href="#m4bb3b5c0db" x="295.2" y="440.094079" style="fill-opacity: 0; stroke: #3f3f3f"/>
    </g>
   </g>
   <g id="line2d_16">
    <path d="M 116.64 476.350385 
L 473.76 476.350385 
" clip-path="url(#pc371a1e3ea)" style="fill: none; stroke: #3f3f3f"/>
   </g>
   <g id="patch_4">
    <path d="M 72 512.64 
L 72 69.12 
" style="fill: none; stroke: #000000; stroke-width: 0.8; stroke-linejoin: miter; stroke-linecap: square"/>
   </g>
   <g id="patch_5">
    <path d="M 518.4 512.64 
L 518.4 69.12 
" style="fill: none; stroke: #000000; stroke-width: 0.8; stroke-linejoin: miter; stroke-linecap: square"/>
   </g>
   <g id="patch_6">
    <path d="M 72 512.64 
L 518.4 512.64 
" style="fill: none; stroke: #000000; stroke-width: 0.8; stroke-linejoin: miter; stroke-linecap: square"/>
   </g>
   <g id="patch_7">
    <path d="M 72 69.12 
L 518.4 69.12 
" style="fill: none; stroke: #000000; stroke-width: 0.8; stroke-linejoin: miter; stroke-linecap: square"/>
   </g>
  </g>
 </g>
 <defs>
  <clipPath id="pc371a1e3ea">
   <rect x="72" y="69.12" width="446.4" height="443.52"/>
  </clipPath>
 </defs>
</svg>
